<?xml version="1.0" encoding="utf-8" standalone="no"?>
<!DOCTYPE svg PUBLIC "-//W3C//DTD SVG 1.1//EN" "http://www.w3.org/Graphics/SVG/1.1/DTD/svg11.dtd">
<svg version="1.1" xmlns="http://www.w3.org/2000/svg" xmlns:xlink="http://www.w3.org/1999/xlink" width="468pt" height="397pt" viewBox="0 0 468 397" xml:space="preserve" enable-background="new 0 0 468 397">
<g color-interpolation="linearRGB" transform="scale(0.24,0.24)">
<g>
	<rect x="0" y="0" width="1948.815" height="1653.54" fill="#FFFFFF" fill-opacity="0" />
</g>
<g id="Map_Frame">
<g id="municipalities">
<clipPath id="cp_2">
<path d="M1882.5663 1622.4473 L1882.5663 68.540605 L78.94633 68.540605 L78.94633 1622.4473 Z " />
</clipPath>
<g clip-path="url(#cp_2)">
<g transform="matrix(4.1666667 0 0 -4.1666667 980.75633 845.49395)">
<path d="M-99.41053 169.65431 L-99.477772 169.48806 L-99.665943 168.23327 L-99.383178 168.14447 L-99.46782 166.41195 L-98.345823 165.91293 L-98.362028 164.31587 L-99.238514 164.13747 L-99.486449 163.59717 L-101.28211 164.17695 L-103.50443 164.91668 L-106.11049 165.83621 L-108.40005 166.53903 L-108.60507 166.3557 L-110.87016 166.20546 L-110.95451 163.82458 L-110.96446 162.49085 L-110.98586 161.26352 L-111.025 159.32975 L-111.08521 156.82498 L-113.29448 156.86631 L-115.80862 156.90821 L-115.77988 157.54841 L-115.75859 158.32281 L-115.73682 158.78827 L-115.70531 159.40288 L-123.59332 159.54693 L-123.80202 159.54095 L-124.59292 159.52286 L-124.90745 159.51625 L-125.29075 159.54149 L-126.04114 159.5784 L-127.90839 159.67258 L-128.24677 159.62067 L-129.38189 159.45003 L-129.41736 160.5371 L-130.31934 160.58234 L-131.68134 160.65373 L-134.46341 160.48523 L-135.88871 160.53546 L-135.85138 163.30417 L-136.55478 163.356 L-136.98166 163.35668 L-136.91847 167.62641 L-136.91537 168.11977 L-136.84759 168.37197 L-136.77477 168.54974 L-138.73813 168.95768 L-139.28545 169.03673 L-139.60095 169.0648 L-139.70117 169.43774 L-139.87399 170.66491 L-142.57157 170.80806 L-144.08192 170.87559 L-144.06023 173.14356 L-143.03159 173.1638 L-141.7857 173.18844 L-141.74325 173.91564 L-141.76644 174.58971 L-141.35694 174.40647 L-139.30626 173.89312 L-139.2938 174.53066 L-139.28553 174.95325 L-139.27395 175.54567 L-139.13025 175.60206 L-138.59691 174.80134 L-137.79724 174.00167 L-136.96773 173.51829 L-136.47242 173.21991 L-135.41017 172.47992 L-134.86712 172.02041 L-134.20471 171.51913 L-133.26182 170.70752 L-132.74263 170.39721 L-132.08022 170.15253 L-129.80654 170.05705 L-127.70592 170.45091 L-124.37 171.22074 L-122.93776 171.73993 L-121.70245 172.00847 L-120.00763 172.52169 L-119.3691 172.65298 L-118.74846 172.68879 L-118.06218 172.73056 L-116.82687 172.84991 L-116.26591 173.01701 L-114.69045 173.23781 L-113.2403 173.05281 L-110.08938 172.52169 L-108.89585 172.45008 L-107.06974 172.25315 L-106.03733 172.00251 L-104.99896 171.60267 L-103.11318 171.06558 L-100.56499 170.03318 L-99.41053 169.65431 Z "  fill="#CE91B5" fill-rule="evenodd" stroke="#6E6E6E" fill-opacity="1" stroke-opacity="1"  stroke-width="0.7" stroke-linecap="round" stroke-linejoin="round" stroke-miterlimit="10" />
</g>
</g>
<g clip-path="url(#cp_2)">
<g transform="matrix(4.1666667 0 0 -4.1666667 980.75633 845.49395)">
<path d="M-59.488136 149.38679 L-59.532644 149.15153 L-59.974091 148.29573 L-59.95608 147.8017 L-59.710228 147.46636 L-59.287022 147.25407 L-58.674957 147.05118 L-57.82349 146.42515 L-57.71603 146.22723 L-57.305184 145.49094 L-56.912119 144.2692 L-56.814249 143.39158 L-56.708231 143.10775 L-56.512012 142.87282 L-56.576815 141.99531 L-57.834383 141.91451 L-58.336993 141.83813 L-58.343567 140.68889 L-58.34927 139.94708 L-58.383952 137.91241 L-57.213124 137.96082 L-57.207513 138.18868 L-57.228767 138.5079 L-53.974598 138.50845 L-53.100397 138.50363 L-53.073592 139.11468 L-53.065718 141.61952 L-53.04656 141.89768 L-52.58543 148.43762 L-52.583161 148.97046 L-52.281693 149.56261 L-52.019296 149.81898 L-51.815709 149.93167 L-51.277144 149.87217 L-50.835927 149.54356 L-50.590174 149.19767 L-50.226442 149.00641 L-49.940811 148.86491 L-49.776147 148.80375 L-49.645733 148.51091 L-49.554478 148.21076 L-49.360835 148.11859 L-49.160252 148.05218 L-48.881746 147.9765 L-48.658891 147.9449 L-48.414929 147.89137 L-47.835568 147.89594 L-47.650885 147.5465 L-47.727299 145.72689 L-47.297627 142.35516 L-47.023115 141.37646 L-46.69091 140.43712 L-47.418385 140.00081 L-47.365722 139.77696 L-47.230892 139.53714 L-47.121719 139.31965 L-46.945847 138.96501 L-46.839963 138.75819 L-46.654167 138.58189 L-46.050261 137.87571 L-45.494685 137.6269 L-45.234754 137.34187 L-45.159756 137.07718 L-44.967246 136.91206 L-44.8028 136.83368 L-44.566803 136.70035 L-44.194643 136.58799 L-43.346447 135.84994 L-42.398141 135.33786 L-41.730776 135.04877 L-41.214096 135.06744 L-41.276551 134.0711 L-40.866442 134.04707 L-39.163393 134.14309 L-39.150369 133.93252 L-39.153403 133.74809 L-39.154505 131.87447 L-39.172622 131.15577 L-41.454751 131.11244 L-42.839757 131.14066 L-43.609771 131.14546 L-44.146053 131.15237 L-48.053691 131.21218 L-48.515144 131.21725 L-48.783463 131.22307 L-48.915039 130.6871 L-49.470388 130.72228 L-49.280724 130.99483 L-49.253684 131.40414 L-49.705649 131.70304 L-50.245725 131.87137 L-50.487045 131.92121 L-50.734393 131.9738 L-51.709067 132.07846 L-52.295338 132.26021 L-53.304702 132.87978 L-53.627338 133.20176 L-54.890831 134.0586 L-55.493856 134.60567 L-55.932705 135.08361 L-56.212205 135.59202 L-56.477946 136.11812 L-56.675678 136.76451 L-58.611792 136.79016 L-59.767101 136.80192 L-59.797916 137.89341 L-63.553206 138.00093 L-63.553874 140.08067 L-63.60179 141.15388 L-63.57435 141.58873 L-65.540125 141.61465 L-66.698295 141.61896 L-66.675397 138.36137 L-64.428978 138.27702 L-64.345911 135.60967 L-65.031801 135.56841 L-65.999816 135.69925 L-66.489597 135.90746 L-66.97962 135.90068 L-68.194378 136.39023 L-68.649653 136.9602 L-69.141553 136.84465 L-69.952506 137.22107 L-70.94635 137.38504 L-71.754841 137.52788 L-71.760583 137.19883 L-72.933539 137.3182 L-74.205265 137.49608 L-74.039895 138.04364 L-73.795904 138.94321 L-74.530647 138.95874 L-75.948871 138.87017 L-76.150885 138.8558 L-78.991307 140.17404 L-79.795613 140.54795 L-82.292566 140.67055 L-83.632098 140.73487 L-83.633557 141.01826 L-83.619939 144.5823 L-83.620997 145.25324 L-82.369955 145.3461 L-82.338344 145.90397 L-82.326626 146.39219 L-82.329485 146.7924 L-82.323696 147.28868 L-82.673622 147.34534 L-83.317407 147.44042 L-83.533137 147.77342 L-84.58604 149.41939 L-84.362686 149.87927 L-84.049716 150.15971 L-83.664488 150.60078 L-82.93805 151.44855 L-82.643562 152.00804 L-83.337361 152.26063 L-83.936267 152.81149 L-83.988405 153.42627 L-84.309071 153.61183 L-84.228524 154.79562 L-83.569548 154.79337 L-84.318375 156.06673 L-84.297803 156.19875 L-84.571281 156.73022 L-84.463048 157.22998 L-84.449556 157.79116 L-84.523173 158.22184 L-85.449585 158.31073 L-85.823098 158.31476 L-86.345575 159.0687 L-86.468661 159.21757 L-86.128504 159.3734 L-85.641378 159.60026 L-85.001347 159.86687 L-84.684693 160.01849 L-83.641203 160.07817 L-83.720513 160.83412 L-83.462959 161.17394 L-83.29647 161.36452 L-82.841029 161.07572 L-82.387487 160.7833 L-81.140245 160.07911 L-80.292836 159.53009 L-78.95608 158.07995 L-77.822224 157.15496 L-77.124007 156.68948 L-76.610789 156.41497 L-75.846927 155.57353 L-75.566449 155.07821 L-74.981618 153.16259 L-74.486302 152.17793 L-74.014854 151.56923 L-72.72584 149.55813 L-72.146977 148.94346 L-71.782949 148.56153 L-71.418921 148.32879 L-70.040392 148.14379 L-68.840892 148.41233 L-67.766712 149.54022 L-67.569779 150.05344 L-67.402683 150.65021 L-67.163979 151.16342 L-66.931238 151.45584 L-66.328506 151.8139 L-65.272228 152.19583 L-64.04289 152.16599 L-63.332739 152.2197 L-62.84339 152.32115 L-62.175011 152.30325 L-62.02582 152.14809 L-61.828887 151.28278 L-61.464859 150.93666 L-60.462292 150.83521 L-60.24149 150.57263 L-59.901333 149.44474 L-59.488136 149.38679 Z "  fill="#C49AD0" fill-rule="evenodd" stroke="#6E6E6E" fill-opacity="1" stroke-opacity="1"  stroke-width="0.7" stroke-linecap="round" stroke-linejoin="round" stroke-miterlimit="10" />
</g>
</g>
<g clip-path="url(#cp_2)">
<g transform="matrix(4.1666667 0 0 -4.1666667 980.75633 845.49395)">
<path d="M31.093597 112.487 L31.299481 112.42732 L31.87536 112.4691 L32.322934 112.34378 L32.537772 112.07523 L32.567608 111.81862 L32.376645 111.63363 L31.899231 111.79475 L31.594879 111.72911 L31.359157 111.13831 L30.765374 111.3054 L29.917965 111.77685 L29.580794 112.13789 L29.60168 112.49297 L30.055222 112.55264 L31.093597 112.487 Z M21.240984 112.18862 L21.19026 111.70524 L20.638251 111.97975 L19.859472 112.07225 L19.56407 112.30797 L19.319397 112.83909 L19.402943 113.1703 L20.99631 112.71974 L21.240984 112.18862 Z M17.397809 114.93971 L17.224747 114.81141 L16.878622 115.06503 L16.926365 115.43503 L17.117329 115.58422 L17.376921 115.53946 L17.517162 115.16052 L17.397809 114.93971 Z M21.622915 116.76581 L22.082425 115.75131 L22.476289 115.21422 L22.431533 114.95761 L21.957104 115.26793 L21.270823 116.0676 L21.002278 115.81696 L20.835186 115.88558 L20.638251 116.16308 L20.650186 116.56888 L21.103727 116.74791 L21.437918 116.88517 L21.622915 116.76581 Z M17.845385 119.25433 L17.46942 119.11708 L16.878622 119.20659 L16.624998 119.51392 L16.890558 119.68997 L17.224747 119.71981 L17.451518 119.67804 L17.815544 119.4811 L17.845385 119.25433 Z M23.723533 121.37882 L23.34757 121.34898 L23.090961 121.53995 L23.096927 121.80252 L23.293859 122.05913 L23.735468 121.97559 L23.88466 121.78462 L23.914496 121.55785 L23.723533 121.37882 Z M26.018098 121.44745 L25.770441 121.17592 L25.066257 121.4922 L24.779808 121.79656 L24.785776 122.05913 L25.125934 122.27397 L25.38851 122.33961 L25.570524 122.20534 L25.865923 121.95171 L26.018098 121.44745 Z M28.145571 122.30381 L27.697996 122.27994 L27.477192 122.35752 L27.453322 122.76929 L27.763641 123.21089 L28.139602 123.31234 L28.461857 123.00799 L28.491695 122.63203 L28.336537 122.41122 L28.145571 122.30381 Z M26.868491 123.23476 L26.492527 123.19001 L26.349303 123.4317 L26.397046 123.76588 L26.623817 123.90911 L26.922199 123.90612 L27.023648 123.56298 L26.868491 123.23476 Z M29.046686 125.34135 L28.781128 125.18022 L28.491695 125.46667 L28.611048 125.68747 L28.873625 125.6815 L29.01685 125.56215 L29.046686 125.34135 Z M35.079994 123.42573 L34.853223 123.31831 L34.513067 123.33024 L34.035655 123.52718 L33.307599 124.14782 L32.394547 124.98926 L32.328901 125.28764 L32.412451 125.58602 L32.7168 125.80086 L33.20018 125.71731 L33.749206 125.32941 L34.050574 124.83708 L34.250489 124.52975 L34.972577 123.80169 L35.079994 123.42573 Z M30.544571 125.44877 L30.3178 125.34135 L29.983611 125.38909 L29.911997 125.61586 L30.070142 125.87247 L30.440136 125.82771 L30.544571 125.44877 Z M29.109349 126.21561 L28.921368 126.12908 L28.781126 126.27529 L28.927334 126.49907 L29.112332 126.4215 L29.109349 126.21561 Z M31.418834 126.09924 L31.117466 126.0336 L30.67586 126.34392 L30.687794 126.60052 L31.057791 126.59456 L31.427785 126.39762 L31.418834 126.09924 Z M30.556506 127.31664 L30.210382 126.95262 L28.867658 127.06004 L28.57524 127.29277 L28.515565 127.78212 L28.336537 128.08051 L28.348473 128.37889 L28.497664 128.52808 L28.724433 128.59372 L29.172007 128.51018 L29.380876 128.40276 L30.234252 127.95518 L30.526667 127.61503 L30.556506 127.31664 Z M9.4966212 130.70628 L9.3056584 130.48547 L8.8222759 130.50338 L8.4940556 130.73611 L8.5000224 130.99273 L8.7626006 131.17176 L9.3533991 130.93305 L9.4966212 130.70628 Z M1.2851184 133.31414 L1.0583463 133.20673 L0.68835205 133.29028 L-0.0098646754 133.71995 L-0.48130926 134.21526 L-0.46937355 134.62703 L-0.093411447 134.76429 L0.46754886 134.67477 L0.90915524 134.51365 L1.0523806 134.40026 L1.4164059 133.86914 L1.4402773 133.49318 L1.2851184 133.31414 Z M8.9446154 135.12235 L8.0106742 135.11041 L7.7898721 135.26557 L7.8346294 135.56395 L8.1747865 135.68629 L8.6193763 135.61767 L8.9475977 135.38493 L8.9446154 135.12235 Z M7.3482646 135.4625 L7.1214925 135.39686 L6.9782704 135.58783 L7.0976222 135.80863 L7.393022 135.72508 L7.3482646 135.4625 Z M10.594674 135.49234 L10.367901 135.38493 L9.812909 135.47444 L9.2579166 135.71315 L9.2638845 135.89814 L9.5324283 136.15475 L10.123228 136.02346 L10.526046 135.69823 L10.594674 135.49234 Z M0.53915991 138.96552 L0.34819818 138.90585 L0.1333596 139.08488 L0.10948817 139.46084 L0.22287423 139.68164 L0.5212585 139.67567 L0.67044847 139.55632 L0.6943199 139.15052 L0.53915991 138.96552 Z M-2.8564401 140.32615 L-2.3133834 139.56229 L-2.2835441 139.2281 L-2.4804759 138.8581 L-2.6057976 138.37472 L-2.9459558 138.27327 L-3.3875622 138.4344 L-3.9365868 138.78649 L-4.5661748 138.90585 L-5.189796 139.4131 L-5.4762424 139.83083 L-5.4702767 140.0218 L-5.1718935 140.15906 L-4.9093153 140.15309 L-4.539321 140.06954 L-4.1633579 140.13518 L-3.7098147 140.45744 L-3.1846615 140.48131 L-2.8564401 140.32615 Z M-26.363064 145.49415 L-26.661449 145.4285 L-27.144828 145.6314 L-27.658047 145.97753 L-28.272716 146.628 L-28.589004 147.38589 L-29.167867 148.07218 L-29.227543 148.66894 L-28.875452 149.25377 L-28.571099 149.51038 L-28.081752 149.49845 L-27.717725 149.22394 L-27.473051 148.69878 L-27.407406 148.28701 L-27.496922 147.83944 L-27.508857 147.39186 L-27.401438 147.12929 L-27.109023 146.86074 L-26.404839 146.72945 L-26.034843 146.53252 L-25.9692 146.30575 L-26.363064 145.49415 Z M-54.661723 152.8105 L-54.369309 152.57776 L-53.307064 151.95713 L-52.752071 151.68858 L-51.868857 151.24697 L-50.693227 150.5786 L-50.215815 150.38166 L-48.992444 150.01167 L-48.479225 149.77296 L-48.186809 149.50442 L-47.79891 148.67491 L-47.631816 148.00057 L-47.650885 147.5465 L-47.835568 147.89594 L-48.414929 147.89137 L-48.658891 147.9449 L-48.881746 147.9765 L-49.160252 148.05218 L-49.360835 148.11859 L-49.554478 148.21076 L-49.645733 148.51091 L-49.776147 148.80375 L-49.940811 148.86491 L-50.226442 149.00641 L-50.590174 149.19767 L-50.835927 149.54356 L-51.277144 149.87217 L-51.815709 149.93167 L-52.019296 149.81898 L-52.281693 149.56261 L-52.583161 148.97046 L-52.58543 148.43762 L-53.04656 141.89768 L-53.065718 141.61952 L-53.073592 139.11468 L-53.100397 138.50363 L-53.974598 138.50845 L-57.228767 138.5079 L-57.207513 138.18868 L-57.213124 137.96082 L-58.383952 137.91241 L-58.34927 139.94708 L-58.343567 140.68889 L-58.336993 141.83813 L-57.834383 141.91451 L-56.576815 141.99531 L-56.512012 142.87282 L-56.708231 143.10775 L-56.814249 143.39158 L-56.912119 144.2692 L-57.305184 145.49094 L-57.71603 146.22723 L-57.82349 146.42515 L-58.674957 147.05118 L-59.287022 147.25407 L-59.710228 147.46636 L-59.95608 147.8017 L-59.974091 148.29573 L-59.532644 149.15153 L-59.488136 149.38679 L-59.440301 149.50588 L-59.292632 149.72522 L-59.316501 150.35779 L-59.567143 150.77553 L-60.1102 151.3902 L-60.551808 151.55132 L-60.772611 151.7781 L-60.689063 151.92729 L-60.205683 151.95116 L-59.614884 151.86164 L-57.943937 151.44391 L-57.788779 151.66471 L-57.591847 152.14212 L-57.657491 152.44051 L-57.985712 152.63744 L-58.469092 152.72695 L-59.065859 152.66728 L-59.740206 152.72099 L-59.961009 152.80453 L-60.068427 152.95373 L-59.87746 153.21034 L-59.388113 153.34759 L-57.144272 153.5863 L-55.950738 153.55646 L-55.658324 153.38936 L-54.661723 152.8105 Z M-152.3106 178.00001 L-150.96787 177.92839 L-150.44272 178.06565 L-150.18611 177.98211 L-148.63452 178.83548 L-147.06502 178.98467 L-145.83568 178.83548 L-144.90473 178.7758 L-144.56457 178.95483 L-144.1349 179.61128 L-143.83055 179.90369 L-143.41878 179.96934 L-143.19797 179.84998 L-143.05475 179.62321 L-142.83991 179.39047 L-141.95073 179.1458 L-141.09139 177.85678 L-139.13025 175.60206 L-139.27395 175.54567 L-139.28553 174.95325 L-139.2938 174.53066 L-139.30626 173.89312 L-141.35694 174.40647 L-141.76644 174.58971 L-141.74325 173.91564 L-141.7857 173.18844 L-143.03159 173.1638 L-144.06023 173.14356 L-144.08192 170.87559 L-142.57157 170.80806 L-139.87399 170.66491 L-139.70117 169.43774 L-139.60095 169.0648 L-139.28545 169.03673 L-138.73813 168.95768 L-136.77477 168.54974 L-136.84759 168.37197 L-136.91537 168.11977 L-136.91847 167.62641 L-136.98166 163.35668 L-136.55478 163.356 L-135.85138 163.30417 L-135.88871 160.53546 L-134.46341 160.48523 L-131.68134 160.65373 L-130.31934 160.58234 L-129.41736 160.5371 L-129.38189 159.45003 L-128.24677 159.62067 L-127.90839 159.67258 L-126.04114 159.5784 L-125.29075 159.54149 L-124.90745 159.51625 L-124.59292 159.52286 L-123.80202 159.54095 L-123.59332 159.54693 L-115.70531 159.40288 L-115.73682 158.78827 L-115.75859 158.32281 L-115.77988 157.54841 L-115.80862 156.90821 L-113.29448 156.86631 L-111.08521 156.82498 L-111.025 159.32975 L-110.98586 161.26352 L-110.96446 162.49085 L-110.95451 163.82458 L-110.87016 166.20546 L-108.60507 166.3557 L-108.40005 166.53903 L-106.11049 165.83621 L-103.50443 164.91668 L-101.28211 164.17695 L-99.486449 163.59717 L-99.238514 164.13747 L-98.362028 164.31587 L-98.345823 165.91293 L-99.46782 166.41195 L-99.383178 168.14447 L-99.665943 168.23327 L-99.477772 169.48806 L-99.41053 169.65431 L-97.091809 168.89335 L-94.531683 168.45175 L-93.218797 168.71432 L-92.395258 168.80384 L-91.500109 168.67255 L-90.246899 168.15336 L-89.691907 168.06385 L-89.471103 167.94449 L-89.441264 167.5745 L-89.650133 166.90612 L-89.924645 166.20194 L-89.077238 165.99307 L-88.928046 165.87968 L-88.945948 165.28292 L-88.540147 165.1576 L-88.217894 165.21429 L-87.006458 165.92146 L-86.964685 165.45598 L-87.095971 165.07405 L-87.245164 164.68018 L-87.782255 164.13116 L-87.973221 163.83874 L-88.020961 163.46875 L-87.961286 163.09279 L-87.597256 162.67505 L-87.376453 162.5915 L-86.92291 162.65715 L-86.18292 162.63328 L-85.872603 162.57957 L-85.472768 162.50795 L-84.774552 162.22747 L-83.598923 161.5591 L-83.29647 161.36452 L-83.462959 161.17394 L-83.720513 160.83412 L-83.641203 160.07817 L-84.684693 160.01849 L-85.001347 159.86687 L-85.641378 159.60026 L-86.128504 159.3734 L-86.468661 159.21757 L-86.345575 159.0687 L-85.823098 158.31476 L-85.449585 158.31073 L-84.523173 158.22184 L-84.449556 157.79116 L-84.463048 157.22998 L-84.571281 156.73022 L-84.297803 156.19875 L-84.318375 156.06673 L-83.569548 154.79337 L-84.228524 154.79562 L-84.309071 153.61183 L-83.988405 153.42627 L-83.936267 152.81149 L-83.337361 152.26063 L-82.643562 152.00804 L-82.93805 151.44855 L-83.664488 150.60078 L-84.049716 150.15971 L-84.362686 149.87927 L-84.58604 149.41939 L-83.533137 147.77342 L-83.317407 147.44042 L-82.673622 147.34534 L-82.323696 147.28868 L-82.329485 146.7924 L-82.326626 146.39219 L-82.338344 145.90397 L-82.369955 145.3461 L-83.620997 145.25324 L-83.619939 144.5823 L-83.633557 141.01826 L-83.632098 140.73487 L-82.292566 140.67055 L-79.795613 140.54795 L-78.991307 140.17404 L-76.150885 138.8558 L-75.948871 138.87017 L-74.530647 138.95874 L-73.795904 138.94321 L-74.039895 138.04364 L-74.205265 137.49608 L-72.933539 137.3182 L-71.760583 137.19883 L-71.754841 137.52788 L-70.94635 137.38504 L-69.952506 137.22107 L-69.141553 136.84465 L-68.649653 136.9602 L-68.194378 136.39023 L-66.97962 135.90068 L-66.489597 135.90746 L-65.999816 135.69925 L-65.031801 135.56841 L-64.345911 135.60967 L-64.428978 138.27702 L-66.675397 138.36137 L-66.698295 141.61896 L-65.540125 141.61465 L-63.57435 141.58873 L-63.60179 141.15388 L-63.553874 140.08067 L-63.553206 138.00093 L-59.797916 137.89341 L-59.767101 136.80192 L-58.611792 136.79016 L-56.675678 136.76451 L-56.477946 136.11812 L-56.212205 135.59202 L-55.932705 135.08361 L-55.493856 134.60567 L-54.890831 134.0586 L-53.627338 133.20176 L-53.304702 132.87978 L-52.295338 132.26021 L-51.709067 132.07846 L-50.734393 131.9738 L-50.487045 131.92121 L-50.245725 131.87137 L-49.705649 131.70304 L-49.253684 131.40414 L-49.280724 130.99483 L-49.470388 130.72228 L-48.915039 130.6871 L-48.783463 131.22307 L-48.515144 131.21725 L-48.053691 131.21218 L-44.146053 131.15237 L-43.609771 131.14546 L-42.839757 131.14066 L-41.454751 131.11244 L-39.172622 131.15577 L-39.154505 131.87447 L-39.153403 133.74809 L-39.150369 133.93252 L-39.163393 134.14309 L-40.866442 134.04707 L-41.276551 134.0711 L-41.214096 135.06744 L-41.730776 135.04877 L-42.398141 135.33786 L-43.346447 135.84994 L-44.194643 136.58799 L-44.566803 136.70035 L-44.8028 136.83368 L-44.967246 136.91206 L-45.159756 137.07718 L-45.234754 137.34187 L-45.494685 137.6269 L-46.050261 137.87571 L-46.654167 138.58189 L-46.839963 138.75819 L-46.945847 138.96501 L-47.121719 139.31965 L-47.230892 139.53714 L-47.365722 139.77696 L-47.418385 140.00081 L-46.69091 140.43712 L-46.503928 139.90841 L-46.074256 139.19229 L-44.039283 137.15732 L-43.233648 136.46507 L-42.469789 135.92201 L-41.323995 135.52218 L-40.542232 135.38493 L-39.426279 135.36105 L-38.859352 135.45654 L-37.958234 135.84444 L-37.618078 135.86831 L-37.474853 135.67734 L-37.349533 134.89558 L-36.872121 134.4301 L-36.609544 134.57332 L-36.418577 134.75832 L-36.436482 135.39089 L-37.045183 136.41733 L-37.188406 136.71571 L-37.140665 136.97829 L-36.615509 137.18716 L-36.269385 137.47361 L-36.299224 137.81376 L-36.69309 138.38069 L-37.462919 138.92375 L-38.005975 139.49665 L-38.364035 140.14115 L-38.423711 140.66631 L-38.179037 140.99453 L-37.409209 140.97663 L-37.116795 140.77969 L-36.388738 140.09341 L-35.523427 139.06101 L-35.087788 138.6015 L-34.437313 137.68844 L-33.67942 136.88281 L-32.802174 136.15475 L-31.73993 135.37896 L-30.540429 134.11381 L-30.200272 133.29028 L-30.015276 132.83673 L-29.693021 132.49061 L-29.245446 132.32948 L-28.726261 132.31755 L-28.571099 132.46077 L-28.380137 132.78899 L-28.278685 133.68414 L-28.051913 133.89898 L-27.598372 133.96462 L-26.85838 133.86914 L-26.082586 133.62446 L-25.640978 133.42753 L-25.384368 133.0456 L-25.259046 132.25787 L-25.050179 131.73271 L-24.686152 131.31498 L-24.101321 130.81369 L-23.779067 130.46757 L-23.707456 130.2408 L-23.791003 129.94838 L-23.844714 129.42323 L-23.450845 128.70711 L-23.015205 128.2476 L-22.609405 128.05067 L-22.048443 128.03276 L-21.380066 128.12825 L-20.323791 128.47437 L-19.792667 128.91001 L-19.40477 129.41726 L-19.088483 130.12145 L-18.921389 130.78982 L-18.939292 131.4582 L-19.118323 131.79836 L-19.804604 132.49061 L-19.94186 133.05157 L-20.478948 133.81543 L-20.872815 134.49574 L-21.165232 134.8359 L-21.893287 135.49234 L-22.096186 136.16669 L-22.41844 136.59039 L-23.182301 137.39006 L-23.832778 138.26731 L-24.196803 138.57166 L-25.491787 140.36196 L-25.903554 140.4097 L-26.118391 140.56486 L-26.094522 141.57339 L-26.416775 142.10451 L-26.375 142.28951 L-26.070648 142.35516 L-25.324692 142.33725 L-24.698087 142.05677 L-24.190837 141.59726 L-23.253912 140.45147 L-22.633275 139.91438 L-21.051844 139.01327 L-20.031374 138.16586 L-19.703154 137.74812 L-19.130258 136.47999 L-18.998967 136.27411 L-18.527524 135.8504 L-17.787533 135.56992 L-17.614471 135.08057 L-17.35786 134.81203 L-16.880448 134.6509 L-16.319489 134.71058 L-16.065864 134.9642 L-16.152393 135.37896 L-16.140457 135.71315 L-15.794333 136.07717 L-15.603368 136.4054 L-15.54966 137.03797 L-15.394499 137.25877 L-15.096116 137.2528 L-14.511286 136.71571 L-14.099519 136.66797 L-13.801134 136.847 L-13.717588 137.18119 L-14.039841 137.55715 L-14.994667 138.21957 L-15.316922 138.67311 L-15.418369 139.12665 L-15.328858 139.64584 L-15.131921 140.01583 L-14.940959 140.15906 L-14.642574 140.11131 L-14.135324 139.6518 L-13.914519 139.61003 L-13.6967 140.06954 L-13.490814 139.93228 L-13.472913 139.22213 L-13.335656 138.84617 L-13.04324 138.61343 L-12.482281 138.71488 L-12.112285 138.55376 L-11.676645 138.02263 L-11.420037 137.86151 L-10.865045 137.81376 L-10.501016 137.43183 L-10.220537 136.85894 L-10.190698 136.52475 L-10.339889 136.38152 L-10.97843 136.35765 L-11.020202 136.17266 L-10.447306 135.30138 L-10.005701 134.95525 L-9.3731284 135.00896 L-9.080712 135.00299 L-8.8897481 134.99703 L-8.6271699 134.87767 L-8.3765285 134.60913 L-8.2333032 134.31075 L-8.2273375 133.2664 L-8.054275 132.69948 L-7.7976636 132.58012 L-7.2725115 132.53238 L-7.0815454 132.78899 L-6.8547733 132.93222 L-6.4609076 132.35932 L-5.6672095 129.76339 L-5.5180174 128.42066 L-4.8257696 127.72841 L-4.4080325 128.05067 L-3.9604572 128.08051 L-3.5904629 127.91938 L-2.8325698 127.00633 L-2.2835441 126.54085 L-1.6211345 126.33795 L-0.9288835 125.60989 L-0.48130926 125.59796 L0.15723104 125.87844 L0.38996886 126.09924 L0.89125383 126.83326 L1.3865699 127.11374 L1.7207591 127.10777 L2.0847833 126.91084 L2.3772008 126.6781 L2.753164 126.63036 L3.3917021 126.87504 L3.6900864 126.86907 L4.1674989 126.67214 L5.0865188 126.12311 L5.5937705 125.43683 L6.7037565 125.22199 L7.264719 125.21006 L7.7182589 125.53231 L7.903256 125.37715 L8.3985731 124.47007 L8.4642163 124.0583 L8.3090585 123.75992 L7.7839042 123.73605 L7.3363289 123.67637 L7.1035911 123.38396 L7.0558482 122.93638 L7.264719 122.48284 L7.6347121 122.21429 L8.7446981 122.07107 L9.2638845 121.90994 L9.7771041 121.55785 L10.033712 121.28931 L10.123228 120.46577 L10.529028 120.23303 L10.970637 120.10771 L11.298857 119.87497 L11.943364 118.77692 L12.456584 118.50241 L13.494959 118.21596 L14.193174 117.93548 L14.628813 117.44016 L14.658652 117.02839 L14.479621 116.09744 L14.66462 115.90647 L15.148001 115.78115 L15.32703 115.63196 L15.571703 115.10084 L15.559767 114.57568 L15.291224 114.36085 L15.142032 114.18182 L15.010745 113.62086 L15.07042 113.0599 L15.249449 112.76151 L15.58364 112.63619 L16.669754 112.71974 L17.230715 112.8928 L18.096025 113.01812 L18.460053 112.82119 L18.710695 112.48103 L18.776339 111.95588 L18.275054 111.44863 L16.88459 111.03686 L15.237513 110.70864 L14.40801 110.57735 L14.067853 110.40429 L13.721728 109.96268 L13.488989 109.55688 L13.178671 109.23462 L10.749831 108.92431 L9.1743677 108.6677 L7.3124586 108.71544 L5.9398944 109.08543 L5.0447459 109.1093 L4.5195917 108.97802 L3.0694486 108.97802 L0.99867095 109.81349 L-0.13518538 110.48187 L-0.72598389 110.72057 L-1.6927467 110.92944 L-3.3278847 111.19799 L-4.921251 111.61572 L-5.7686598 111.93201 L-6.1326873 112.16475 L-6.8189672 113.08377 L-7.4873447 113.28667 L-8.1795957 113.86553 L-8.8121671 113.91924 L-8.6689439 113.61489 L-8.6450724 113.05393 L-8.8420053 112.72571 L-9.4089345 112.40345 L-11.139557 111.89024 L-11.473746 111.82459 L-11.778096 111.75894 L-14.612735 111.83056 L-14.911118 111.72911 L-15.406434 111.40686 L-15.979331 110.85783 L-16.283682 110.72057 L-16.504486 110.76235 L-17.089317 111.26363 L-17.423507 111.23379 L-17.536891 111.09057 L-17.548825 110.75041 L-17.33399 110.48783 L-17.077382 110.18348 L-16.522388 109.98058 L-16.086749 109.70607 L-15.943525 109.44349 L-15.764496 109.13914 L-15.859979 108.32157 L-15.794333 107.9098 L-15.54966 107.2653 L-15.084181 106.62079 L-13.777263 105.35564 L-12.792598 104.32921 L-11.843741 103.62502 L-10.996332 103.23115 L-10.18473 102.98648 L-9.2836127 103.03422 L-8.6152342 102.94471 L-7.9886296 102.62842 L-7.5231518 101.90634 L-7.0517061 101.59602 L-6.753324 101.44086 L-3.2144986 101.26779 L-0.42163284 101.19618 L0.92108987 101.23796 L1.7804344 101.21409 L3.3379947 100.90974 L5.4445784 100.25926 L8.6486269 100.18258 L8.7288423 99.796303 L8.6983309 99.261004 L8.7183094 97.954828 L8.7515527 97.273523 L11.726934 97.229134 L11.909617 97.274193 L12.231076 97.274724 L12.486216 97.255671 L12.714431 97.237021 L12.866417 97.204242 L17.023944 97.08243 L17.018092 96.300853 L17.034187 94.61918 L17.039074 94.27207 L17.013428 92.528638 L16.964166 92.000181 L16.938976 91.306811 L16.435256 91.324841 L16.147304 91.331737 L9.6032654 91.519718 L6.289921 91.617143 L5.880553 85.343414 L7.1789487 85.25291 L7.082251 83.442195 L8.3675641 83.372506 L8.2918129 78.746025 L13.021801 78.410168 L12.773726 73.520834 L10.418465 73.695176 L10.28781 66.703311 L6.5086275 66.883896 L-3.1136467 66.961371 L-3.4097956 66.447004 L-3.7589755 65.338242 L-12.316255 65.652922 L-12.168466 69.16683 L-14.449642 69.229651 L-14.389866 74.549826 L-17.405718 74.670817 L-17.409678 77.594549 L-19.76863 77.732636 L-19.66904 80.676635 L-19.629621 81.90494 L-22.664464 82.04664 L-22.574542 87.507716 L-26.718534 87.523474 L-26.926439 81.388103 L-32.972207 81.516139 L-32.862502 83.805021 L-32.851959 84.053027 L-32.732574 86.48376 L-29.756995 86.384541 L-29.64927 91.205001 L-32.024188 91.342262 L-31.901603 96.656189 L-35.568036 96.824622 L-35.700957 98.609165 L-35.700209 100.30526 L-36.758473 100.43138 L-39.15897 100.37185 L-39.218334 98.952756 L-39.284444 98.789274 L-39.191925 97.942352 L-42.892084 98.059073 L-42.85016 93.185024 L-38.67995 93.004868 L-38.900976 86.391939 L-41.277089 86.450913 L-41.279873 83.064044 L-67.699049 83.371227 L-67.796299 81.013162 L-64.292882 80.892424 L-64.216933 78.5566 L-61.838318 78.405028 L-61.985076 73.711305 L-59.592772 73.576925 L-59.645788 71.228724 L-61.220714 71.270834 L-61.482766 71.277963 L-66.966741 71.425168 L-67.221836 71.432221 L-68.017559 71.45326 L-68.019207 72.03725 L-68.022983 74.410329 L-70.971585 74.60077 L-70.983679 78.684089 L-73.242176 78.667664 L-73.229895 78.997922 L-73.227233 79.150503 L-73.105778 83.447178 L-76.22721 83.57477 L-76.137145 86.256795 L-80.948838 86.411213 L-81.17332 86.406336 L-93.64912 86.81678 L-98.140332 86.895596 L-98.394053 86.900218 L-103.1273 86.981471 L-103.25284 88.262569 L-116.39231 88.647859 L-116.89268 88.66256 L-117.00814 90.902483 L-120.03017 91.069115 L-120.35392 91.138052 L-120.48606 91.066886 L-123.76175 91.159462 L-124.42455 91.176701 L-124.67554 91.209347 L-126.31977 91.228051 L-128.66227 91.296034 L-128.65113 88.245087 L-137.72019 88.235409 L-149.08221 88.12613 L-149.33334 89.515467 L-149.83673 90.563372 L-150.97821 91.185916 L-151.99691 91.621568 L-152.02277 90.318669 L-157.51091 92.939348 L-162.38532 95.376703 L-166.18744 95.399862 L-166.12817 98.320769 L-165.10264 98.370324 L-165.04693 99.983556 L-165.02034 100.9742 L-165.11671 105.05171 L-165.12254 105.2569 L-165.13397 105.82921 L-176.87145 106.05924 L-176.86439 109.62368 L-181.53126 109.72028 L-181.36295 116.54735 L-189.60671 116.85436 L-189.40409 122.38191 L-192.22506 122.44333 L-192.25117 124.18871 L-196.5441 124.3606 L-196.62025 122.02271 L-195.91269 121.48138 L-196.10527 118.81146 L-195.66008 118.24253 L-195.62893 113.60866 L-201.84046 113.8352 L-201.88649 116.33234 L-203.18154 116.51405 L-203.14251 117.56451 L-204.81401 117.64551 L-207.96136 117.79692 L-208.07522 116.52574 L-209.44693 116.58964 L-212.93435 119.76542 L-212.90835 120.40481 L-210.56778 122.82332 L-210.4899 122.98792 L-157.06911 180.01988 L-156.41038 179.64112 L-155.07959 179.04435 L-154.67379 178.81161 L-153.16397 178.17307 L-152.3106 178.00001 Z "  fill="#ACB7CF" fill-rule="evenodd" stroke="#6E6E6E" fill-opacity="1" stroke-opacity="1"  stroke-width="0.7" stroke-linecap="round" stroke-linejoin="round" stroke-miterlimit="10" />
</g>
</g>
<g clip-path="url(#cp_2)">
<g transform="matrix(4.1666667 0 0 -4.1666667 980.75633 845.49395)">
<path d="M17.023944 97.08243 L12.866417 97.204242 L12.714431 97.237021 L12.486216 97.255671 L12.231076 97.274724 L11.909617 97.274193 L11.726934 97.229134 L8.7515527 97.273523 L8.7183094 97.954828 L8.6983309 99.261004 L8.7288423 99.796303 L9.0189507 100.10689 L9.1262573 100.2135 L9.2673167 100.34914 L9.5562998 100.48603 L9.9800026 100.92167 L10.4329 101.0602 L10.637131 100.93572 L10.832089 100.78584 L11.199239 100.7651 L11.289054 100.99203 L11.61631 100.94668 L11.853914 100.8894 L12.164916 100.83169 L12.807834 100.8374 L12.803887 99.693495 L15.413486 99.778949 L16.115714 99.976281 L17.002293 100.33437 L17.035935 98.340345 L17.023944 97.08243 Z "  fill="#D0969F" fill-rule="evenodd" stroke="#6E6E6E" fill-opacity="1" stroke-opacity="1"  stroke-width="0.7" stroke-linecap="round" stroke-linejoin="round" stroke-miterlimit="10" />
</g>
</g>
<g clip-path="url(#cp_2)">
<g transform="matrix(4.1666667 0 0 -4.1666667 980.75633 845.49395)">
<path d="M96.617381 28.995029 L96.753623 28.177919 L95.618248 28.232309 L95.585731 28.561805 L95.523636 29.034648 L95.561452 29.278684 L95.620102 29.447157 L95.637755 30.105134 L95.747411 32.798268 L95.880349 33.87881 L96.280871 33.659918 L96.249775 33.004759 L96.203469 32.75983 L96.20798 31.920778 L96.14607 31.45045 L96.331534 30.602876 L96.408514 30.10099 L96.485732 29.920235 L96.541725 29.605713 L96.617381 28.995029 Z "  fill="#EFAACA" fill-rule="evenodd" stroke="#6E6E6E" fill-opacity="1" stroke-opacity="1"  stroke-width="0.7" stroke-linecap="round" stroke-linejoin="round" stroke-miterlimit="10" />
</g>
</g>
<g clip-path="url(#cp_2)">
<g transform="matrix(4.1666667 0 0 -4.1666667 980.75633 845.49395)">
<path d="M118.04361 14.775814 L117.8472 12.444597 L114.62978 12.314846 L114.5089 12.776722 L113.83349 14.412169 L113.3758 15.336469 L113.01062 15.905385 L112.45901 16.465881 L111.8997 17.031682 L111.31335 18.299374 L110.89319 19.164684 L110.84008 19.633837 L117.8801 19.564124 L118.04361 14.775814 Z "  fill="#C4B4E1" fill-rule="evenodd" stroke="#6E6E6E" fill-opacity="1" stroke-opacity="1"  stroke-width="0.7" stroke-linecap="round" stroke-linejoin="round" stroke-miterlimit="10" />
</g>
</g>
<g clip-path="url(#cp_2)">
<g transform="matrix(4.1666667 0 0 -4.1666667 980.75633 845.49395)">
<path d="M114.62978 12.314846 L114.69031 12.091206 L114.99993 11.307989 L115.12387 11.106832 L115.40662 10.855387 L115.94112 10.532673 L116.38064 10.317895 L116.86794 10.241234 L117.0768 10.188384 L117.25469 10.056939 L117.4675 9.7811115 L117.54115 9.5599799 L117.45904 9.0520354 L117.32173 8.4034099 L117.2375 7.8626492 L116.54423 7.8328837 L116.48205 7.0543399 L116.77751 6.6003956 L113.02133 6.613733 L112.98455 9.8626126 L113.01258 12.658898 L113.01062 15.905385 L113.3758 15.336469 L113.83349 14.412169 L114.5089 12.776722 L114.62978 12.314846 Z "  fill="#94A6CF" fill-rule="evenodd" stroke="#6E6E6E" fill-opacity="1" stroke-opacity="1"  stroke-width="0.7" stroke-linecap="round" stroke-linejoin="round" stroke-miterlimit="10" />
</g>
</g>
<g clip-path="url(#cp_2)">
<g transform="matrix(4.1666667 0 0 -4.1666667 980.75633 845.49395)">
<path d="M117.8472 12.444597 L118.04361 14.775814 L123.94165 14.825045 L124.02269 13.836587 L124.02224 13.224194 L123.99794 12.849601 L123.9891 12.647338 L123.94966 12.091123 L124.00601 10.770142 L124.01389 10.429684 L124.02167 9.9664826 L118.08539 10.075174 L117.8472 12.444597 Z "  fill="#DDC1B9" fill-rule="evenodd" stroke="#6E6E6E" fill-opacity="1" stroke-opacity="1"  stroke-width="0.7" stroke-linecap="round" stroke-linejoin="round" stroke-miterlimit="10" />
</g>
</g>
<g clip-path="url(#cp_2)">
<g transform="matrix(4.1666667 0 0 -4.1666667 980.75633 845.49395)">
<path d="M103.51119 20.823695 L103.362 20.71031 L103.10539 20.823695 L102.92039 21.122079 L102.992 21.313044 L103.21877 21.307076 L103.36796 21.199659 L103.51119 20.823695 Z M102.39524 21.313044 L102.43104 21.086273 L102.06701 21.17877 L101.39267 21.689006 L101.31509 21.987388 L101.46428 22.136581 L101.65525 22.172387 L101.90887 22.085855 L102.39524 21.313044 Z M102.9562 21.814327 L102.73539 21.760617 L102.5862 22.059001 L102.5862 22.243999 L102.90249 22.300691 L102.9562 21.814327 Z M101.94766 22.500608 L101.54186 22.434965 L101.1659 22.506576 L101.02267 22.655767 L101.17186 22.804958 L101.65525 22.918345 L101.99242 22.879557 L102.10282 22.655767 L101.94766 22.500608 Z M103.52014 22.873587 L103.33216 22.649801 L103.11136 22.763186 L103.06958 23.025763 L103.33216 23.061571 L103.52014 22.873587 Z M108.51209 22.26787 L108.73886 22.115694 L108.81047 22.452868 L108.92386 22.787058 L109.00144 23.270438 L109.5624 23.270438 L109.7832 23.198825 L110.00997 22.745283 L110.1532 21.515944 L110.30239 20.841599 L110.374 20.244832 L110.26062 19.874837 L110.22481 19.463068 L110.33223 18.979688 L110.40682 18.493323 L110.48142 18.048732 L110.36803 17.899541 L109.77127 17.786153 L108.61354 17.792124 L108.20774 17.941316 L105.89825 19.063234 L105.33729 19.403392 L104.81811 19.922579 L104.59133 20.077738 L103.96473 21.492074 L103.85135 21.939649 L103.89312 22.238031 L104.06021 22.297708 L104.33473 21.527878 L104.5615 21.19369 L104.85988 21.044498 L105.30149 20.71031 L105.71326 20.483538 L106.16083 20.483538 L106.45921 20.632729 L106.90679 21.265301 L107.50952 21.933682 L107.87952 22.602061 L107.99589 23.330113 L108.36887 22.93625 L108.51209 22.26787 Z M111.85398 23.637449 L111.68689 23.491241 L111.50189 23.562852 L111.50189 23.90301 L111.83608 23.897043 L111.85398 23.637449 Z M110.57093 23.527046 L110.34416 23.491241 L110.12336 23.604627 L110.00997 24.016394 L109.82498 24.428164 L109.82498 24.726548 L110.12336 24.684774 L110.64851 24.428164 L111.05431 24.314778 L111.11101 24.01341 L110.57093 23.527046 Z M118.40648 25.377024 L118.90478 24.965255 L118.66905 26.27217 L118.33486 26.904744 L116.21634 29.822931 L116.03135 30.455504 L116.06715 30.718082 L116.36553 30.938885 L116.59231 30.867274 L117.37407 30.228733 L117.85745 29.482774 L118.37664 28.396661 L119.7492 26.379591 L120.16097 25.854435 L120.82935 25.144283 L121.79611 24.881706 L122.40481 24.607193 L122.61368 24.505745 L123.21044 24.356553 L123.54463 24.093975 L124.21898 23.944783 L125.00074 23.270438 L125.22155 23.192857 L126.04508 23.306244 L127.12523 23.527046 L128.03232 23.521079 L128.24715 23.521079 L129.81068 22.960119 L130.89083 23.145117 L131.48759 23.592692 L132.01275 23.586724 L132.01275 23.103342 L132.30516 22.769153 L132.88403 22.491658 L134.76384 21.868038 L136.44075 21.116109 L138.38024 20.029997 L138.60105 19.988222 L138.64282 20.179189 L138.38024 20.441766 L138.40113 20.683456 L138.67863 20.775955 L139.16201 20.549182 L140.05716 20.549182 L140.8807 20.954984 L141.66843 20.954984 L143.22599 20.949017 L143.75114 20.799825 L143.99954 20.52427 L144.00775 19.79129 L144.31452 19.558144 L144.43187 19.180726 L144.65572 18.702597 L145.02905 18.196982 L145.38906 18.031217 L145.84326 17.839199 L146.31724 17.362451 L146.75884 16.723913 L147.284 16.09134 L147.27803 15.67957 L147.54061 15.154414 L148.17318 14.629261 L148.25579 14.462111 L129.95266 14.701026 L129.80853 16.949867 L129.29363 16.965606 L129.09037 16.932728 L123.77243 16.937264 L123.94165 14.825045 L118.04361 14.775814 L117.8801 19.564124 L110.84008 19.633837 L110.82158 19.797257 L110.85738 20.209026 L110.85738 20.841599 L110.97673 22.482704 L110.97673 22.781089 L111.20351 23.00786 L111.53769 23.00786 L111.7585 22.852701 L112.13446 22.816894 L113.29219 23.073506 L113.5488 23.258502 L113.73976 23.855268 L114.11573 24.678806 L114.30072 24.714612 L114.37233 24.416229 L114.33653 23.592692 L114.40814 22.54835 L113.99637 21.802392 L113.47122 21.020628 L113.43541 20.76402 L113.80541 20.76402 L114.40217 21.581589 L115.04071 22.214162 L115.26152 22.136581 L115.7449 21.802392 L116.13876 21.781504 L115.97167 22.136581 L115.3391 22.54835 L115.04071 22.960119 L115.08249 23.258502 L115.41668 23.258502 L115.78667 23.145117 L116.01344 22.995925 L116.45505 22.208192 L117.05182 21.348851 L117.42181 21.348851 L117.68439 21.199659 L118.61534 20.453701 L118.87792 20.411927 L119.06292 20.564101 L118.24535 21.348851 L117.31439 22.393191 L116.16263 24.487839 L115.38684 25.717179 L115.01684 26.725714 L114.58419 27.638765 L113.93669 29.303746 L113.94266 29.900512 L114.31266 30.049703 L114.31266 30.312279 L114.02024 31.094043 L114.20823 31.320814 L114.80201 30.759854 L115.357 29.822931 L116.10296 28.999394 L116.47295 28.253436 L117.88729 26.385556 L118.1439 25.973788 L118.40648 25.377024 Z M113.83525 32.436768 L113.92775 31.711696 L113.23848 32.293545 L112.86848 32.890311 L112.1643 34.943186 L111.86592 35.65334 L111.9793 36.13672 L111.90769 36.470909 L111.68092 36.811065 L111.49592 37.366057 L111.23931 38.487979 L110.9469 39.460706 L110.9469 39.657641 L110.9469 40.129086 L111.17367 40.57666 L111.19157 41.436003 L111.39447 41.47181 L111.73463 41.137621 L112.17623 39.305548 L112.95203 37.031868 L113.17284 36.094945 L113.47122 35.575759 L113.65622 34.638835 L113.72783 33.2245 L113.83525 32.436768 Z M102.09685 49.295415 L102.20427 48.585263 L102.12669 47.540923 L102.27588 46.866578 L102.3833 46.645774 L102.34749 46.419004 L101.63734 45.076279 L101.22557 44.294514 L101.07638 44.187096 L100.73622 44.258709 L100.55123 44.449674 L100.44381 44.783862 L100.408 45.082247 L100.62881 45.714818 L100.593 45.94159 L100.14543 46.275779 L100.0022 46.800933 L99.739626 47.397699 L99.668013 47.994465 L99.256245 48.627038 L98.88625 48.627038 L98.438676 48.03624 L98.140291 48.072046 L97.692717 48.406235 L97.579331 48.746391 L97.5853 49.450575 L97.919488 50.196534 L98.331256 50.721689 L98.337224 51.837642 L98.558026 51.986833 L98.892218 52.022639 L99.118988 52.547794 L99.494951 52.881983 L100.01414 53.138592 L100.53929 53.174397 L101.80444 52.840208 L102.10282 52.649243 L102.13862 52.130056 L102.35943 51.831672 L102.35943 51.569097 L102.28782 51.12152 L102.50862 50.858945 L102.65781 50.596367 L102.84281 49.814603 L102.69362 49.665413 L102.35346 49.552026 L102.09685 49.295415 Z M94.858077 63.373133 L95.269846 63.15233 L95.753226 63.373133 L96.051608 63.40894 L97.01837 63.110556 L97.800134 62.997171 L97.991099 62.806205 L98.396901 62.096054 L98.432708 61.761864 L97.537557 61.093486 L97.12579 60.49672 L97.089984 60.198336 L97.161595 59.828342 L97.531589 59.452379 L97.829974 59.338993 L98.241742 58.927224 L98.874314 58.103686 L99.208503 57.471114 L99.24431 57.095153 L98.83254 56.128391 L98.754961 55.454045 L98.919072 54.746877 L98.45061 54.749861 L98.378998 54.153094 L97.853843 53.70552 L97.627072 53.335524 L97.442075 52.774563 L97.328689 52.100219 L97.179497 51.694415 L96.803537 51.396033 L96.170962 51.133456 L95.795001 51.211035 L95.389198 51.473612 L94.792432 52.07038 L94.195666 52.971497 L93.861476 53.078915 L93.640674 53.04311 L93.428821 52.834239 L93.413901 52.225541 L93.933089 50.471046 L93.927122 50.095083 L93.258744 49.46251 L92.512786 49.504285 L92.226338 49.707185 L92.029405 49.838474 L91.211835 51.592966 L91.026837 52.1957 L90.806034 53.759228 L90.400233 54.505187 L89.875078 55.257112 L89.582662 56.038876 L89.361858 56.969832 L88.950089 57.793369 L88.878478 58.467714 L88.878478 59.06448 L89.182829 59.661247 L89.367828 59.917857 L89.367828 60.29382 L89.069444 60.443012 L88.699449 60.29382 L88.472678 60.371398 L88.472678 60.628009 L88.884448 61.075585 L89.337988 62.269115 L89.522985 63.426843 L89.266377 64.250379 L89.152991 64.620376 L89.379763 64.918757 L89.528954 65.402142 L89.666209 65.539396 L89.827336 65.700523 L90.274911 65.885522 L90.650875 65.885522 L91.247642 65.807941 L91.766827 65.587138 L92.363594 64.984402 L92.775363 64.686019 L93.628739 64.345864 L94.261311 64.047481 L94.488081 63.749097 L94.858077 63.373133 Z M84.319183 68.660483 L83.758223 68.511291 L83.310649 68.517259 L83.161457 68.776851 L83.722417 68.92306 L84.450472 68.884268 L84.319183 68.660483 Z M90.251041 68.946929 L89.612501 68.612741 L88.753156 68.726126 L88.383162 68.988704 L88.120585 69.251282 L87.935587 69.364668 L87.935587 69.549666 L88.084779 69.657083 L88.72332 69.621277 L89.875078 69.394505 L90.209267 69.167736 L90.251041 68.946929 Z M85.548522 83.173841 L85.100948 83.173841 L84.915951 83.358838 L84.987562 83.585608 L85.291912 83.919799 L85.106916 84.40318 L85.142721 84.626965 L85.327719 84.588177 L85.548522 84.140602 L85.548522 83.546819 L85.548522 83.173841 Z M44.061329 96.362376 L45.43389 96.254958 L46.860162 96.589146 L48.447561 97.364943 L49.306906 97.347041 L51.091236 97.072528 L51.753645 96.798014 L52.893469 96.165444 L55.071668 93.873858 L55.662464 93.635154 L56.77245 93.378544 L57.512441 93.13387 L58.765651 92.507265 L62.000124 90.740837 L62.590923 90.502129 L63.068335 90.37681 L63.438332 90.179875 L64.184288 90.161975 L65.425562 89.857622 L65.843297 89.517467 L66.022329 89.63682 L66.547484 89.672626 L67.293443 89.857622 L68.075205 90.114233 L68.970353 90.526001 L70.014696 90.520033 L70.390658 90.448422 L71.208229 89.774076 L71.655803 89.809881 L72.067571 90.06649 L72.330147 90.108264 L74.19206 89.76214 L75.123015 89.499562 L75.642202 89.051988 L76.38816 88.568608 L77.134119 88.264255 L77.468307 87.965873 L77.617498 87.631684 L78.697644 87.142337 L78.918448 87.213948 L78.733451 87.625718 L78.733451 87.852487 L78.924416 88.109099 L79.336185 88.109099 L79.777791 87.995713 L80.374558 87.995713 L80.828102 88.294096 L81.56809 88.10313 L81.794864 87.882327 L81.830669 86.837985 L82.272276 86.384444 L82.200663 86.163638 L81.511397 86.071139 L81.448737 85.196877 L81.042935 84.820915 L80.965356 84.415115 L81.114548 84.039151 L81.371159 83.818348 L82.158889 83.663189 L82.600498 83.030616 L83.38226 82.427882 L84.241603 82.016114 L84.647406 81.902727 L86.437704 81.860954 L86.586895 81.604344 L86.658508 80.894193 L87.923652 79.623081 L88.105666 79.515662 L88.299615 79.694692 L88.26381 81.371606 L87.482045 81.932566 L87.076243 82.421913 L86.849472 82.421913 L86.70028 82.308527 L86.401898 82.421913 L86.401898 82.606911 L86.742054 82.982874 L87.153824 83.167872 L88.15639 83.090293 L88.233971 82.905294 L88.192196 82.213046 L88.753156 82.045954 L88.902348 81.81918 L88.753156 81.449187 L88.562193 80.77484 L88.633806 80.028881 L88.782996 79.432116 L89.302183 77.826814 L89.743789 76.746667 L90.22717 75.84555 L90.937322 74.950399 L91.343124 74.240248 L91.599732 73.494291 L91.677312 72.784139 L91.599732 72.336564 L91.372961 71.924796 L90.889581 71.703992 L89.958625 71.483187 L89.057509 71.077388 L88.502514 70.964002 L86.933021 70.743199 L86.264641 70.784971 L85.930452 70.898356 L85.775293 70.820777 L85.626101 70.713359 L85.291912 70.713359 L84.545957 71.125127 L84.062575 71.047548 L83.131619 70.677553 L82.493079 70.271754 L82.158889 69.871919 L81.932118 69.603375 L81.227934 69.418375 L80.404397 69.042414 L79.807631 68.409842 L79.318281 68.266616 L79.169089 68.117425 L78.8349 67.108891 L78.757322 66.512124 L78.828934 65.169399 L79.013931 64.495055 L79.348121 63.784903 L79.980693 63.038945 L81.580026 61.654448 L82.767591 60.795103 L83.400164 60.234142 L83.883544 59.559797 L84.48031 59.034642 L84.742888 59.034642 L84.909983 59.371816 L85.447072 58.700454 L85.894646 58.360297 L86.455608 58.5811 L87.279145 59.440444 L87.613334 59.589633 L87.834136 59.142061 L87.762525 58.766097 L87.720751 58.169331 L87.905747 57.423373 L87.834136 57.011604 L87.571559 56.677415 L87.571559 56.343226 L88.23994 55.185499 L88.681545 54.588733 L88.753156 53.991966 L88.938154 53.389234 L89.606533 52.273281 L89.833304 51.71232 L89.904917 51.002168 L90.054108 50.220404 L90.495716 49.283482 L90.901515 48.089947 L90.829904 47.827371 L90.788132 47.379798 L91.199899 46.747224 L91.235706 45.553691 L91.09845 45.291114 L91.58183 45.291114 L92.775363 45.655142 L92.996166 45.058375 L92.572462 44.986764 L92.309884 44.801767 L92.330771 44.560077 L92.608267 44.389998 L92.835039 44.169196 L93.020037 43.644039 L93.169229 43.494848 L93.539223 43.381462 L93.688414 42.898082 L93.831638 41.925352 L94.022603 41.62697 L94.243409 41.62697 L94.392599 41.77616 L94.392599 42.408733 L94.249375 42.933888 L94.249375 43.494848 L94.583565 43.602265 L94.858077 43.297913 L95.329523 42.146155 L96.147093 41.286813 L95.842741 40.690046 L96.141125 40.242471 L96.233623 39.738204 L98.118806 39.981001 L99.226406 36.673809 L99.36963 35.77866 L97.442075 35.026734 L97.394333 34.8298 L97.245143 34.304645 L96.910953 34.012231 L96.648374 33.713848 L96.606603 32.669507 L96.493218 31.881775 L96.564829 31.135817 L96.934823 30.276472 L96.976598 29.870673 L96.899018 29.6439 L96.887083 29.399227 L96.857244 28.862137 L97.155626 28.524964 L97.006434 28.265371 L97.006434 27.931183 L96.779666 27.704411 L96.743857 27.370223 L96.815471 26.994257 L97.14966 26.433298 L98.229808 25.538151 L98.975763 24.643001 L99.494951 24.004459 L99.679949 23.67027 L99.915671 22.810928 L100.23494 21.838198 L100.41994 21.802392 L100.56913 21.465219 L100.49155 21.09224 L100.64074 20.644664 L100.67655 20.19709 L100.85558 19.686854 L101.45831 19.15275 L101.7925 18.740979 L101.82831 18.442597 L101.9775 18.251633 L102.38927 18.254616 L102.35346 18.699208 L102.16846 19.146782 L101.7 19.671936 L101.15993 20.012093 L101.08832 20.495475 L101.1659 20.829663 L101.35089 21.014661 L101.57767 20.978855 L102.11177 20.441764 L103.06361 20.376121 L103.62457 19.89274 L104.07215 19.701775 L104.74053 19.140814 L105.82067 18.544048 L108.61354 17.195357 L109.1745 17.117776 L109.73546 17.302773 L110.10545 17.338579 L111.48399 16.998424 L111.8997 17.031682 L112.45901 16.465881 L113.01062 15.905385 L113.01258 12.658898 L112.98455 9.8626126 L113.02133 6.613733 L112.93373 3.6761654 L107.3315 3.7324248 L107.15211 3.7511479 L105.05188 3.7516769 L99.872888 3.7785935 L99.774124 3.1597553 L99.769214 2.7550824 L99.757699 2.3803486 L99.728738 0.26249263 L99.67204 -1.9512318 L97.315215 -1.9782882 L97.228961 -4.4049617 L93.779273 -4.3573727 L93.599499 -1.9380418 L91.703348 -1.8084747 L91.747047 0.10351667 L91.687635 0.4423046 L91.7482 0.76003319 L93.921691 0.73586471 L93.954817 2.3656691 L93.989345 4.0737505 L93.971112 4.2202758 L94.028849 6.2216691 L94.030939 6.3914989 L94.146943 12.843921 L97.831444 12.826641 L97.701044 13.167611 L97.48231 13.638378 L97.421406 13.821584 L97.020439 15.253666 L96.253469 17.337479 L94.944655 18.544186 L94.783645 18.6928 L94.639466 18.829261 L94.45217 18.999763 L94.131455 19.402142 L93.797935 19.294783 L79.41959 19.660234 L78.774867 19.632637 L78.305179 19.537789 L77.475286 19.330787 L76.649487 18.900814 L75.671488 18.04751 L75.933471 20.304712 L74.198058 20.473722 L74.256699 20.867752 L75.994722 20.936911 L76.072031 22.039331 L75.690739 22.079404 L75.196447 22.134208 L74.659054 22.188912 L74.21026 22.159541 L73.876124 22.277319 L73.650677 22.551611 L73.236831 22.665783 L72.789512 22.749874 L72.570855 22.808442 L72.942645 23.043814 L73.17315 23.127084 L73.537294 23.041421 L73.907668 22.932459 L74.354009 22.772758 L74.605784 22.716426 L74.872235 23.527777 L74.955017 23.786141 L75.349385 24.982009 L74.201599 25.094357 L73.97291 25.116554 L73.776842 25.136674 L73.578031 25.146543 L73.57667 25.815047 L73.57956 26.172975 L73.613212 26.973728 L73.598194 27.108283 L73.585462 29.823867 L71.467958 29.924994 L71.280474 29.933404 L71.032977 29.945916 L71.032259 30.258439 L71.027136 30.500025 L71.001601 32.115347 L69.724255 32.185089 L69.532753 32.195995 L64.484947 32.476885 L64.527612 34.957651 L59.160686 35.098941 L58.981861 37.376543 L56.832707 37.514212 L55.778775 38.903229 L55.895203 44.56614 L55.54743 44.619272 L55.587669 46.375071 L55.604606 46.88841 L56.471528 46.945059 L56.568351 47.964252 L57.926525 48.031574 L57.951976 48.922343 L58.012539 49.107647 L58.148019 49.203034 L58.453648 49.222155 L59.13894 49.201357 L59.890915 49.222809 L61.627181 49.267978 L61.750754 49.82568 L62.26955 49.912331 L62.335082 50.587586 L62.5877 50.612096 L62.769965 50.858162 L64.357013 50.892518 L65.319415 50.909649 L65.568319 50.916978 L66.124014 51.263966 L66.338081 51.400483 L66.786773 51.715715 L66.290882 52.109742 L65.94999 52.415475 L65.648844 52.733292 L65.032248 53.799089 L64.554449 54.537271 L63.994112 55.346888 L63.761822 55.835665 L63.503022 56.325458 L62.776681 56.355008 L62.456333 56.9571 L61.92185 57.186493 L61.717727 57.550168 L61.238646 57.481576 L60.897084 57.468882 L60.686482 57.102112 L60.423472 57.305346 L60.551294 57.693126 L60.375671 57.926378 L59.928535 58.246203 L59.360067 58.403105 L58.566991 58.641328 L57.994503 59.015944 L57.548286 59.368967 L56.884641 59.850992 L56.456849 60.117524 L56.023065 60.455139 L55.391231 60.810034 L55.033561 60.633065 L54.845042 61.38739 L53.922493 61.401881 L53.868751 62.056183 L53.555403 62.933636 L53.550043 63.275424 L53.549325 63.478805 L53.416339 63.820005 L50.599195 63.869664 L50.425173 64.24428 L50.331294 64.437988 L50.089876 64.494371 L49.92659 63.937252 L47.960794 64.03256 L47.767989 66.16912 L47.537057 66.164667 L47.32586 66.193784 L44.864059 66.201558 L43.890861 66.222675 L41.947299 66.249692 L41.937859 70.096987 L42.021366 78.116956 L42.0166 78.367506 L42.035683 78.770007 L42.063032 79.188648 L40.829442 79.318332 L40.850756 80.128211 L40.804017 80.810979 L40.642293 83.24709 L40.115512 83.271713 L38.931961 83.286312 L37.748688 83.289669 L37.726808 83.973753 L37.773867 87.425813 L38.294743 87.397916 L38.946872 87.403133 L42.462633 87.299114 L42.373084 88.481127 L42.453741 89.997842 L42.470388 90.833998 L42.450856 91.084755 L42.446132 92.070838 L41.226939 92.092493 L41.029532 92.189142 L41.012177 93.573857 L41.04276 94.580681 L41.035354 95.231716 L41.010977 95.63217 L41.027227 96.079831 L41.00737 96.430458 L40.965711 98.064567 L41.47733 97.54994 L43.094566 96.613018 L44.061329 96.362376 Z M95.618248 28.232309 L96.753623 28.177919 L96.617381 28.995029 L96.541725 29.605713 L96.485732 29.920235 L96.408514 30.10099 L96.331534 30.602876 L96.14607 31.45045 L96.20798 31.920778 L96.203469 32.75983 L96.249775 33.004759 L96.280871 33.659918 L95.880349 33.87881 L95.747411 32.798268 L95.637755 30.105134 L95.620102 29.447157 L95.561452 29.278684 L95.523636 29.034648 L95.585731 28.561805 L95.618248 28.232309 Z "  fill="#F0B0AC" fill-rule="evenodd" stroke="#6E6E6E" fill-opacity="1" stroke-opacity="1"  stroke-width="0.7" stroke-linecap="round" stroke-linejoin="round" stroke-miterlimit="10" />
</g>
</g>
<g clip-path="url(#cp_2)">
<g transform="matrix(4.1666667 0 0 -4.1666667 980.75633 845.49395)">
<path d="M144.78653 18.902107 L145.84326 17.839199 L145.38906 18.031217 L145.02905 18.196982 L144.65572 18.702597 L144.43187 19.180726 L144.31452 19.558144 L144.45533 19.451133 L144.78653 18.902107 Z M9.0189507 100.10689 L8.7288423 99.796303 L8.6486269 100.18258 L9.1262573 100.2135 L9.0189507 100.10689 Z M-212.90835 120.40481 L-212.93435 119.76542 L-213.24345 120.04689 L-212.90835 120.40481 Z M-181.36295 116.54735 L-181.53126 109.72028 L-176.86439 109.62368 L-176.87145 106.05924 L-165.13397 105.82921 L-165.12254 105.2569 L-165.11671 105.05171 L-165.02034 100.9742 L-165.04693 99.983556 L-165.10264 98.370324 L-166.12817 98.320769 L-166.18744 95.399862 L-162.38532 95.376703 L-157.51091 92.939348 L-152.02277 90.318669 L-151.99691 91.621568 L-150.97821 91.185916 L-149.83673 90.563372 L-149.33334 89.515467 L-149.08221 88.12613 L-137.72019 88.235409 L-128.65113 88.245087 L-128.66227 91.296034 L-126.31977 91.228051 L-124.67554 91.209347 L-124.42455 91.176701 L-123.76175 91.159462 L-120.48606 91.066886 L-120.35392 91.138052 L-120.03017 91.069115 L-117.00814 90.902483 L-116.89268 88.66256 L-116.39231 88.647859 L-103.25284 88.262569 L-103.1273 86.981471 L-98.394053 86.900218 L-98.140332 86.895596 L-93.64912 86.81678 L-81.17332 86.406336 L-80.948838 86.411213 L-76.137145 86.256795 L-76.22721 83.57477 L-73.105778 83.447178 L-73.227233 79.150503 L-73.229895 78.997922 L-73.242176 78.667664 L-70.983679 78.684089 L-70.971585 74.60077 L-68.022983 74.410329 L-68.019207 72.03725 L-68.017559 71.45326 L-67.221836 71.432221 L-66.966741 71.425168 L-61.482766 71.277963 L-61.220714 71.270834 L-59.645788 71.228724 L-59.592772 73.576925 L-61.985076 73.711305 L-61.838318 78.405028 L-64.216933 78.5566 L-64.292882 80.892424 L-67.796299 81.013162 L-67.699049 83.371227 L-41.279873 83.064044 L-41.277089 86.450913 L-38.900976 86.391939 L-38.67995 93.004868 L-42.85016 93.185024 L-42.892084 98.059073 L-39.191925 97.942352 L-39.284444 98.789274 L-39.218334 98.952756 L-39.15897 100.37185 L-36.758473 100.43138 L-35.700209 100.30526 L-35.700957 98.609165 L-35.568036 96.824622 L-31.901603 96.656189 L-32.024188 91.342262 L-29.64927 91.205001 L-29.756995 86.384541 L-32.732574 86.48376 L-32.851959 84.053027 L-32.862502 83.805021 L-32.972207 81.516139 L-26.926439 81.388103 L-26.718534 87.523474 L-22.574542 87.507716 L-22.664464 82.04664 L-19.629621 81.90494 L-19.66904 80.676635 L-19.76863 77.732636 L-17.409678 77.594549 L-17.405718 74.670817 L-14.389866 74.549826 L-14.449642 69.229651 L-12.168466 69.16683 L-12.316255 65.652922 L-3.7589755 65.338242 L-3.4097956 66.447004 L-3.1136467 66.961371 L6.5086275 66.883896 L10.28781 66.703311 L10.418465 73.695176 L12.773726 73.520834 L13.021801 78.410168 L8.2918129 78.746025 L8.3675641 83.372506 L7.082251 83.442195 L7.1789487 85.25291 L5.880553 85.343414 L6.289921 91.617143 L9.6032654 91.519718 L16.147304 91.331737 L16.435256 91.324841 L16.938976 91.306811 L16.964166 92.000181 L17.013428 92.528638 L17.039074 94.27207 L17.034187 94.61918 L17.018092 96.300853 L17.023944 97.08243 L17.035935 98.340345 L17.002293 100.33437 L16.115714 99.976281 L15.413486 99.778949 L12.803887 99.693495 L12.807834 100.8374 L12.164916 100.83169 L11.853914 100.8894 L11.61631 100.94668 L11.289054 100.99203 L11.199239 100.7651 L10.832089 100.78584 L10.637131 100.93572 L10.4329 101.0602 L10.994507 101.23199 L11.740465 101.24989 L13.118994 101.3215 L15.702993 101.55424 L18.030382 102.09133 L18.549568 102.1152 L19.892293 102.18681 L20.751636 102.09133 L21.676623 101.91827 L23.234183 101.46473 L25.579474 101.40505 L26.510432 101.19618 L26.84462 101.28271 L27.113165 101.44086 L27.495094 101.9123 L27.954604 102.34794 L29.607648 102.75374 L30.168608 102.81342 L30.610216 102.65229 L31.344239 102.10924 L31.893263 101.79892 L32.328901 101.41102 L32.836154 100.80232 L33.349371 100.30103 L34.155007 99.907169 L34.823385 99.704267 L35.491763 99.614752 L37.729638 99.626686 L38.845591 99.447658 L39.472195 99.286532 L40.206219 98.815086 L40.462826 98.570409 L40.965711 98.064567 L41.00737 96.430458 L41.027227 96.079831 L41.010977 95.63217 L41.035354 95.231716 L41.04276 94.580681 L41.012177 93.573857 L41.029532 92.189142 L41.226939 92.092493 L42.446132 92.070838 L42.450856 91.084755 L42.470388 90.833998 L42.453741 89.997842 L42.373084 88.481127 L42.462633 87.299114 L38.946872 87.403133 L38.294743 87.397916 L37.773867 87.425813 L37.726808 83.973753 L37.748688 83.289669 L38.931961 83.286312 L40.115512 83.271713 L40.642293 83.24709 L40.804017 80.810979 L40.850756 80.128211 L40.829442 79.318332 L42.063032 79.188648 L42.035683 78.770007 L42.0166 78.367506 L42.021366 78.116956 L41.937859 70.096987 L41.947299 66.249692 L43.890861 66.222675 L44.864059 66.201558 L47.32586 66.193784 L47.537057 66.164667 L47.767989 66.16912 L47.960794 64.03256 L49.92659 63.937252 L50.089876 64.494371 L50.331294 64.437988 L50.425173 64.24428 L50.599195 63.869664 L53.416339 63.820005 L53.549325 63.478805 L53.550043 63.275424 L53.555403 62.933636 L53.868751 62.056183 L53.922493 61.401881 L54.845042 61.38739 L55.033561 60.633065 L55.391231 60.810034 L56.023065 60.455139 L56.456849 60.117524 L56.884641 59.850992 L57.548286 59.368967 L57.994503 59.015944 L58.566991 58.641328 L59.360067 58.403105 L59.928535 58.246203 L60.375671 57.926378 L60.551294 57.693126 L60.423472 57.305346 L60.686482 57.102112 L60.897084 57.468882 L61.238646 57.481576 L61.717727 57.550168 L61.92185 57.186493 L62.456333 56.9571 L62.776681 56.355008 L63.503022 56.325458 L63.761822 55.835665 L63.994112 55.346888 L64.554449 54.537271 L65.032248 53.799089 L65.648844 52.733292 L65.94999 52.415475 L66.290882 52.109742 L66.786773 51.715715 L66.338081 51.400483 L66.124014 51.263966 L65.568319 50.916978 L65.319415 50.909649 L64.357013 50.892518 L62.769965 50.858162 L62.5877 50.612096 L62.335082 50.587586 L62.26955 49.912331 L61.750754 49.82568 L61.627181 49.267978 L59.890915 49.222809 L59.13894 49.201357 L58.453648 49.222155 L58.148019 49.203034 L58.012539 49.107647 L57.951976 48.922343 L57.926525 48.031574 L56.568351 47.964252 L56.471528 46.945059 L55.604606 46.88841 L55.587669 46.375071 L55.54743 44.619272 L55.895203 44.56614 L55.778775 38.903229 L56.832707 37.514212 L58.981861 37.376543 L59.160686 35.098941 L64.527612 34.957651 L64.484947 32.476885 L69.532753 32.195995 L69.724255 32.185089 L71.001601 32.115347 L71.027136 30.500025 L71.032259 30.258439 L71.032977 29.945916 L71.280474 29.933404 L71.467958 29.924994 L73.585462 29.823867 L73.598194 27.108283 L73.613212 26.973728 L73.57956 26.172975 L73.57667 25.815047 L73.578031 25.146543 L73.776842 25.136674 L73.97291 25.116554 L74.201599 25.094357 L75.349385 24.982009 L74.955017 23.786141 L74.872235 23.527777 L74.605784 22.716426 L74.354009 22.772758 L73.907668 22.932459 L73.537294 23.041421 L73.17315 23.127084 L72.942645 23.043814 L72.570855 22.808442 L72.789512 22.749874 L73.236831 22.665783 L73.650677 22.551611 L73.876124 22.277319 L74.21026 22.159541 L74.659054 22.188912 L75.196447 22.134208 L75.690739 22.079404 L76.072031 22.039331 L75.994722 20.936911 L74.256699 20.867752 L74.198058 20.473722 L75.933471 20.304712 L75.671488 18.04751 L76.649487 18.900814 L77.475286 19.330787 L78.305179 19.537789 L78.774867 19.632637 L79.41959 19.660234 L93.797935 19.294783 L94.131455 19.402142 L94.45217 18.999763 L94.639466 18.829261 L94.783645 18.6928 L94.944655 18.544186 L96.253469 17.337479 L97.020439 15.253666 L97.421406 13.821584 L97.48231 13.638378 L97.701044 13.167611 L97.831444 12.826641 L94.146943 12.843921 L94.030939 6.3914989 L94.028849 6.2216691 L93.971112 4.2202758 L93.989345 4.0737505 L93.954817 2.3656691 L93.921691 0.73586471 L91.7482 0.76003319 L91.687635 0.4423046 L91.747047 0.10351667 L91.703348 -1.8084747 L93.599499 -1.9380418 L93.779273 -4.3573727 L97.228961 -4.4049617 L97.315215 -1.9782882 L99.67204 -1.9512318 L99.728738 0.26249263 L99.757699 2.3803486 L99.769214 2.7550824 L99.774124 3.1597553 L99.872888 3.7785935 L105.05188 3.7516769 L107.15211 3.7511479 L107.3315 3.7324248 L112.93373 3.6761654 L113.02133 6.613733 L116.77751 6.6003956 L116.48205 7.0543399 L116.54423 7.8328837 L117.2375 7.8626492 L117.32173 8.4034099 L117.45904 9.0520354 L117.54115 9.5599799 L117.4675 9.7811115 L117.25469 10.056939 L117.0768 10.188384 L116.86794 10.241234 L116.38064 10.317895 L115.94112 10.532673 L115.40662 10.855387 L115.12387 11.106832 L114.99993 11.307989 L114.69031 12.091206 L114.62978 12.314846 L117.8472 12.444597 L118.08539 10.075174 L124.02167 9.9664826 L124.01389 10.429684 L124.00601 10.770142 L123.94966 12.091123 L123.9891 12.647338 L123.99794 12.849601 L124.02224 13.224194 L124.02269 13.836587 L123.94165 14.825045 L123.77243 16.937264 L129.09037 16.932728 L129.29363 16.965606 L129.80853 16.949867 L129.95266 14.701026 L148.25579 14.462111 L148.42979 14.110075 L148.99075 13.513309 L148.91317 13.023959 L148.99075 12.653964 L149.43236 12.015425 L149.80235 11.156081 L149.95154 10.225125 L149.98735 9.4015893 L149.8859 9.1390122 L149.72477 8.7332086 L149.72477 8.1364433 L149.64719 7.9156391 L149.76058 7.653063 L149.79638 7.3904848 L149.56961 6.6445263 L149.56961 6.125341 L150.0888 4.4782673 L150.08283 3.3205395 L150.26783 2.6879671 L150.30364 2.0553946 L150.9004 0.85589402 L150.97201 0.52170585 L150.78702 0.15171052 L151.04363 -0.33763873 L150.63186 -0.89263117 L150.63186 -1.3043993 L150.89443 -1.5669765 L151.33604 -1.8295536 L151.81942 -2.312935 L151.85523 -3.0588935 L151.74781 -3.3572756 L151.59265 -3.5064677 L151.14508 -3.5422727 L151.18685 -3.7690448 L151.62846 -4.5508083 L151.62846 -4.7775794 L151.29427 -4.7775794 L150.8825 -4.5150033 L150.6975 -4.5508083 L150.36331 -5.2191868 L150.58113 -5.8547437 L150.10074 -5.7801471 L149.83816 -5.9651443 L149.90977 -6.1919153 L150.20815 -6.6036846 L150.35734 -7.4570602 L150.65573 -7.5346402 L150.84072 -7.5346402 L151.5091 -8.0239884 L151.6583 -8.3223694 L151.5091 -8.4715615 L151.02572 -8.3939837 L150.50057 -8.0956016 L149.34881 -7.1228709 L148.48947 -6.6693278 L148.11947 -6.6335228 L147.97028 -6.8185199 L150.05299 -8.4655958 L150.46476 -8.7281729 L151.80749 -9.2533272 L152.54748 -9.4025193 L153.03384 -9.2563116 L152.95925 -9.0325229 L152.85183 -8.6625287 L153.15021 -8.6983336 L153.6694 -9.0325229 L154.34076 -10.082831 L154.52277 -9.7844503 L154.71374 -9.7486432 L155.75211 -11.350962 L155.30752 -11.127173 L155.19115 -11.312171 L155.37615 -11.873132 L155.65365 -12.425141 L155.74614 -12.917473 L156.08033 -13.293434 L156.71291 -13.782784 L157.23806 -14.642127 L158.01386 -16.468231 L158.04966 -16.915806 L158.16305 -17.255964 L158.68223 -17.518542 L158.75385 -17.816923 L158.15708 -18.521108 L158.12128 -18.783684 L158.52707 -19.117873 L158.60466 -19.607223 L159.08804 -20.126409 L159.15965 -20.388986 L158.93885 -20.466565 L158.37788 -20.460598 L158.22869 -20.651565 L158.63449 -20.949948 L159.15965 -21.063332 L159.38045 -21.361714 L159.75641 -21.737678 L160.4964 -22.036061 L160.90817 -22.412025 L161.35575 -22.931211 L161.27817 -23.122176 L161.24236 -23.420559 L161.98235 -24.536512 L161.94356 -24.763284 L161.64816 -24.834895 L161.61236 -25.019892 L161.94655 -25.473436 L162.50452 -26.443181 L162.79992 -26.2552 L163.02669 -26.147781 L163.2833 -26.559549 L163.65927 -26.929545 L163.99345 -27.156315 L164.25006 -27.526313 L164.92441 -27.902274 L165.29441 -28.051466 L165.6644 -28.505008 L165.74198 -28.761617 L165.4436 -28.875003 L165.36602 -29.101774 L165.06763 -29.47177 L164.65586 -29.47177 L164.43506 -29.39419 L164.13668 -29.39419 L164.02329 -29.692572 L164.35748 -29.919344 L164.80506 -29.990956 L165.00796 -30.328131 L165.21086 -30.516111 L165.80762 -31.077072 L166.33935 -31.822437 L164.96999 -31.782108 L164.53068 -31.782627 L163.4399 -31.766892 L163.23002 -31.782004 L147.68793 -31.470681 L141.12832 -31.42531 L123.28991 -31.171712 L123.0395 -35.924009 L121.91172 -35.92639 L121.83641 -40.756977 L123.05759 -40.763623 L123.00448 -42.074712 L123.01745 -42.256653 L122.99678 -42.884067 L122.98977 -43.499029 L123.01011 -43.742095 L122.95858 -44.002032 L122.95387 -44.160107 L122.92248 -44.464949 L122.87061 -44.920166 L122.60647 -44.902556 L116.93966 -44.629072 L113.95249 -44.513393 L114.02103 -52.061274 L113.78663 -52.741922 L110.54275 -52.577174 L109.96668 -51.47697 L107.17674 -51.234302 L106.55852 -51.158616 L106.0875 -50.995766 L105.74241 -50.627404 L105.31598 -50.128689 L104.49531 -49.435499 L103.58276 -49.204299 L102.7026 -49.037157 L101.50872 -48.765365 L100.60839 -48.53622 L99.409363 -48.331964 L98.494732 -47.989133 L95.843772 -50.004371 L94.2794 -48.388207 L92.193069 -50.197762 L88.629446 -50.120468 L88.475266 -49.397336 L84.253867 -49.453367 L83.988006 -54.428203 L83.213732 -54.580351 L82.676063 -54.447511 L82.243049 -54.735311 L81.904361 -54.913494 L81.753688 -54.992536 L81.551774 -54.913682 L81.09113 -54.728711 L80.30071 -54.328561 L79.796809 -53.874308 L79.237687 -53.611758 L78.594221 -53.428407 L78.129595 -53.318981 L77.403261 -53.099386 L76.907991 -53.032678 L76.394351 -52.866868 L75.980015 -52.443559 L75.471736 -52.371354 L75.105797 -52.087989 L74.40195 -51.684162 L73.775183 -51.496287 L73.264349 -51.353022 L72.557496 -51.184658 L71.827494 -51.018633 L71.222232 -50.722173 L70.565368 -50.5365 L70.184588 -50.627762 L69.864931 -50.648821 L69.449711 -50.301717 L69.090183 -49.565198 L68.538672 -49.199056 L67.946181 -48.697681 L67.502801 -48.238717 L67.033554 -47.723673 L66.475434 -47.399873 L66.048596 -47.212477 L65.356715 -47.175526 L64.737751 -47.167388 L64.083579 -47.04996 L63.463602 -47.102161 L62.579865 -47.470011 L61.976621 -47.29549 L61.427754 -47.264993 L60.905547 -47.723846 L60.26764 -47.892527 L59.690089 -48.016882 L59.142711 -48.135657 L58.424277 -48.354321 L57.927727 -48.390818 L57.546257 -48.304105 L57.268978 -48.35414 L57.011702 -48.702354 L56.742964 -49.12406 L56.370394 -49.349302 L55.948971 -49.73578 L55.48561 -49.800552 L55.37662 -49.988851 L55.47491 -50.337184 L55.387432 -50.677714 L54.907518 -50.934009 L54.208434 -51.426207 L53.82209 -51.699008 L53.604835 -51.534183 L53.194421 -51.359449 L52.619766 -51.262774 L52.233925 -51.23964 L52.011964 -50.907536 L51.114307 -51.077834 L50.883389 -50.892236 L50.513115 -50.976117 L50.154083 -51.163655 L49.62498 -51.151149 L49.372416 -50.889605 L48.158444 -51.280443 L48.193566 -56.282445 L50.621684 -56.219297 L50.597 -60.223219 L53.371208 -60.440577 L53.315637 -63.330051 L55.588588 -63.449548 L55.728978 -68.634711 L57.690091 -68.660962 L58.682652 -68.674205 L58.651563 -70.253584 L57.292976 -70.478293 L57.26684 -70.931114 L56.646923 -70.960642 L56.697677 -71.409184 L53.687571 -71.553875 L53.623461 -70.155676 L50.820091 -70.064693 L50.670321 -69.326174 L50.183742 -69.311606 L50.193915 -68.562648 L46.781027 -68.518771 L46.777119 -67.943127 L46.777898 -66.291338 L45.724331 -66.147517 L45.733705 -65.464233 L45.185576 -65.580786 L45.122417 -65.09423 L43.60344 -64.896171 L43.500229 -64.150292 L43.096603 -64.203113 L42.814099 -64.398929 L42.601221 -64.388691 L42.418022 -64.37886 L41.772495 -64.342065 L41.778381 -63.916837 L41.284834 -63.717586 L41.109802 -63.370798 L40.729646 -63.431215 L40.628986 -62.648204 L39.159343 -62.599911 L39.103035 -62.317799 L38.47551 -62.182326 L38.307883 -61.557616 L36.548698 -61.383744 L36.45422 -62.17731 L35.179409 -61.435211 L35.068173 -62.254082 L35.204413 -62.498841 L35.502735 -62.826822 L36.182165 -63.432514 L36.776895 -63.885061 L37.02293 -63.428026 L38.061813 -63.427274 L38.129023 -63.866129 L38.700703 -63.97031 L38.804609 -64.376498 L39.810248 -64.162906 L39.631061 -68.417495 L38.765517 -68.405452 L38.45779 -67.054903 L36.574561 -66.927084 L36.462092 -66.135931 L35.926874 -66.075354 L35.918135 -65.01693 L34.525839 -64.815584 L34.39056 -65.433403 L33.236462 -65.551183 L33.234061 -65.969163 L28.452965 -66.101141 L28.504399 -65.033613 L27.954131 -65.11203 L26.989955 -65.439981 L26.800302 -68.233992 L29.610801 -68.27403 L29.490564 -72.066961 L27.215479 -72.057125 L27.086195 -73.864683 L28.131633 -73.918077 L28.176632 -75.203943 L29.308019 -75.296342 L29.296402 -78.234875 L27.436986 -78.230968 L27.291272 -79.56786 L25.664301 -79.886321 L25.406379 -80.209077 L24.393633 -80.207163 L23.32718 -80.204448 L23.196295 -80.205219 L22.582953 -80.540753 L20.601617 -80.441153 L20.430906 -78.657141 L19.371121 -78.679606 L19.361734 -78.393494 L19.355361 -78.170459 L19.316261 -76.952337 L18.940974 -76.873903 L18.956345 -76.266343 L18.95895 -75.846375 L18.955258 -74.957869 L18.949216 -74.231228 L18.942515 -73.309503 L18.570724 -73.23377 L18.559729 -71.016128 L19.092202 -70.818837 L19.035876 -69.195713 L13.383842 -69.163579 L13.240125 -68.040114 L12.311316 -68.025122 L8.5947081 -67.968855 L5.5111972 -67.922958 L4.2887564 -67.909991 L4.3426233 -66.32364 L-4.3787461 -65.994882 L-4.473796 -66.56009 L-8.492125 -66.541068 L-11.638711 -63.671486 L-11.630632 -62.815438 L-11.618562 -61.610642 L-13.934953 -61.577434 L-209.44693 116.58964 L-208.07522 116.52574 L-207.96136 117.79692 L-204.81401 117.64551 L-203.14251 117.56451 L-203.18154 116.51405 L-201.88649 116.33234 L-201.84046 113.8352 L-195.62893 113.60866 L-195.66008 118.24253 L-196.10527 118.81146 L-195.91269 121.48138 L-196.62025 122.02271 L-196.5441 124.3606 L-192.25117 124.18871 L-192.22506 122.44333 L-189.40409 122.38191 L-189.60671 116.85436 L-181.36295 116.54735 Z "  fill="#CDA190" fill-rule="evenodd" stroke="#6E6E6E" fill-opacity="1" stroke-opacity="1"  stroke-width="0.7" stroke-linecap="round" stroke-linejoin="round" stroke-miterlimit="10" />
</g>
</g>
<g clip-path="url(#cp_2)">
<g transform="matrix(4.1666667 0 0 -4.1666667 980.75633 845.49395)">
<path d="M157.49467 -76.407439 L157.24403 -76.407439 L156.64726 -75.953899 L156.65323 -75.655515 L157.17242 -75.655515 L157.6916 -76.031478 L157.76918 -76.407439 L157.49467 -76.407439 Z M155.3105 -74.90359 L155.38212 -75.351164 L154.49294 -75.02891 L154.11697 -74.897622 L153.95202 -74.791666 L153.33809 -74.074084 L153.75294 -74.074084 L154.34374 -74.450047 L155.01809 -74.527625 L155.3105 -74.90359 Z M154.12891 -72.283785 L154.23931 -72.883537 L153.90214 -72.797005 L153.46053 -72.283785 L153.46053 -71.907822 L153.75891 -71.836211 L154.12891 -72.283785 Z M169.67653 -46.157247 L169.85623 -46.159042 L170.39932 -46.150994 L170.43256 -46.533319 L170.59966 -47.037585 L170.09241 -46.945086 L169.79999 -46.795895 L169.35242 -46.795895 L169.34645 -47.24347 L169.42403 -47.541852 L169.42403 -47.798465 L169.60903 -48.174426 L169.19726 -48.359424 L169.04807 -48.544421 L168.89887 -48.991995 L168.03953 -49.85134 L167.77695 -50.370526 L167.58599 -50.370526 L167.25478 -50.203434 L166.8818 -50.442137 L166.50584 -50.519718 L165.87327 -50.406331 L165.68827 -50.215367 L165.91504 -49.511183 L166.10004 -49.135219 L166.06424 -48.914417 L165.87924 -48.72345 L165.65247 -48.72345 L165.46747 -48.908448 L165.31828 -49.320218 L165.16908 -49.469409 L164.94231 -49.541022 L164.82893 -50.030368 L164.60812 -49.952789 L164.16055 -49.618601 L163.63539 -49.612633 L163.33701 -49.726019 L162.55525 -49.385861 L161.36172 -49.457473 L160.35318 -49.379893 L159.45803 -49.642471 L158.56288 -50.012467 L158.04369 -50.495848 L157.66773 -50.645039 L157.18435 -50.979228 L156.84419 -50.979228 L156.80839 -50.71665 L156.6592 -50.567459 L156.36081 -50.531654 L155.87743 -50.752456 L155.16728 -51.683412 L155.0897 -51.94599 L155.23889 -52.315983 L155.2747 -53.32452 L154.97632 -54.219667 L154.97035 -54.744823 L155.26873 -55.341589 L155.60292 -55.675779 L156.0863 -55.789165 L156.94564 -56.499318 L157.6916 -56.911085 L158.43756 -56.803667 L158.80755 -57.030438 L159.51771 -57.591398 L160.11447 -57.663011 L161.60042 -57.967362 L162.87153 -58.605901 L163.53991 -59.238474 L164.2441 -60.097815 L165.87924 -61.822471 L166.69681 -62.866812 L167.32938 -63.911153 L168.03356 -65.409037 L168.51694 -66.602569 L168.51694 -67.646911 L168.77355 -68.172066 L168.80936 -68.506255 L168.27824 -69.81914 L168.83323 -71.239445 L168.89887 -72.212174 L169.11968 -73.328126 L168.29614 -74.145695 L167.76502 -75.935993 L167.90824 -76.532761 L168.50501 -77.129527 L169.0242 -77.135496 L169.33471 -77.646244 L167.91884 -78.04124 L167.60389 -77.726295 L166.33875 -78.018709 L165.74198 -77.941131 L163.95168 -77.034046 L163.21169 -76.884855 L162.83573 -77.254848 L162.68057 -77.774034 L163.05056 -78.29919 L164.0949 -78.901923 L164.11044 -79.014573 L163.59229 -79.146752 L163.39329 -79.200129 L162.2414 -79.489744 L161.78542 -78.14403 L160.96785 -77.320493 L161.00962 -77.141462 L161.20059 -76.276153 L160.75301 -75.452613 L159.79222 -74.402305 L159.04626 -74.026345 L158.3003 -74.020375 L157.47677 -74.539561 L156.36081 -74.533594 L156.06243 -74.235212 L156.0684 -72.743295 L155.17922 -71.692987 L154.21245 -70.947028 L153.02489 -70.195104 L152.79812 -70.415907 L152.79215 -71.382668 L152.20135 -71.084285 L151.01379 -69.884785 L150.44089 -69.622207 L148.78785 -67.819973 L147.59432 -66.399669 L147.03932 -65.838709 L145.25499 -63.970832 L145.02822 -63.672448 L143.31049 -61.783943 L143.32001 -61.420567 L143.40652 -58.617028 L150.67131 -58.636787 L150.69814 -55.764273 L150.78638 -46.456127 L150.78891 -46.215979 L150.78888 -45.930025 L169.67653 -46.157247 Z "  fill="#CEADC6" fill-rule="evenodd" stroke="#6E6E6E" fill-opacity="1" stroke-opacity="1"  stroke-width="0.7" stroke-linecap="round" stroke-linejoin="round" stroke-miterlimit="10" />
</g>
</g>
<g clip-path="url(#cp_2)">
<g transform="matrix(4.1666667 0 0 -4.1666667 980.75633 845.49395)">
<path d="M127.31407 -51.592126 L127.01185 -51.504384 L126.64185 -51.498414 L126.63588 -51.689381 L126.97604 -52.023569 L126.74927 -52.620335 L126.74927 -53.252909 L126.59411 -53.664676 L125.92573 -53.736289 L125.43638 -54.112251 L125.21558 -54.368859 L125.28719 -54.703048 L125.43638 -55.007401 L126.40911 -55.043207 L126.78385 -55.19714 L126.91088 -55.517223 L127.03598 -55.81442 L126.73733 -56.015936 L126.47476 -56.278511 L126.55234 -56.648509 L127.07152 -57.209468 L127.36991 -57.436239 L127.51527 -57.303512 L127.59747 -57.690201 L127.73033 -58.429144 L127.72042 -58.728259 L127.76767 -58.970295 L127.95132 -60.393517 L127.66892 -60.358495 L123.29126 -60.275123 L123.28296 -52.264237 L123.33751 -51.267654 L123.35304 -51.052864 L126.54865 -51.038669 L127.31407 -51.592126 Z "  fill="#EDC7D7" fill-rule="evenodd" stroke="#6E6E6E" fill-opacity="1" stroke-opacity="1"  stroke-width="0.7" stroke-linecap="round" stroke-linejoin="round" stroke-miterlimit="10" />
</g>
</g>
<g clip-path="url(#cp_2)">
<g transform="matrix(4.1666667 0 0 -4.1666667 980.75633 845.49395)">
<path d="M156.1547 -88.289797 L155.91556 -88.706616 L155.88329 -89.879271 L155.83521 -90.051271 L155.4978 -89.776413 L155.52385 -90.169449 L155.54293 -90.898122 L155.54724 -91.11379 L155.5521 -91.318518 L155.60469 -95.381072 L152.84309 -95.395398 L150.68962 -95.407945 L150.76897 -90.736713 L145.99455 -90.62039 L146.08641 -82.960394 L143.69446 -82.927462 L135.71913 -82.817527 L135.18641 -82.811667 L135.18742 -75.462467 L135.12416 -75.247028 L131.39482 -75.31897 L131.16576 -72.991627 L131.13486 -72.630356 L130.99812 -70.561464 L133.05795 -70.623939 L132.77691 -69.945634 L132.79405 -69.58158 L133.32347 -69.590101 L134.07947 -69.598463 L135.26191 -69.611508 L135.3365 -68.863275 L135.34462 -68.443389 L135.6873 -68.441854 L135.91618 -68.389635 L136.10047 -68.283184 L136.21245 -67.963959 L137.91428 -67.937498 L137.86734 -67.678896 L137.80895 -67.550209 L138.0458 -67.346461 L138.03276 -67.161874 L137.58518 -66.977179 L137.64514 -66.683919 L137.82834 -66.655404 L137.9486 -66.036709 L138.4181 -66.051128 L139.06429 -66.033963 L139.40687 -66.04035 L139.95811 -66.044691 L140.16846 -65.862437 L140.3257 -65.862578 L140.58828 -66.19677 L141.07166 -66.089351 L141.29246 -66.160963 L141.40585 -66.351929 L141.14327 -66.721923 L141.14327 -66.942727 L141.40585 -67.244094 L141.14327 -67.694651 L141.14327 -67.993036 L141.32827 -68.142226 L141.92504 -67.993036 L142.671 -67.993036 L143.83469 -69.538661 L143.02905 -69.920591 L143.17824 -70.218974 L143.77501 -70.296552 L143.84662 -70.66655 L143.54824 -71.042511 L143.54227 -71.412506 L145.07 -72.647814 L145.40418 -72.916358 L145.92337 -73.065549 L146.44853 -72.922327 L147.41406 -72.110803 L147.76064 -72.47988 L147.55254 -75.38697 L147.54657 -76.878885 L147.98818 -78.29919 L149.09817 -79.868686 L149.46816 -80.614644 L148.93704 -81.360601 L149.01462 -81.808177 L149.53381 -82.333329 L150.50057 -82.637681 L150.94814 -83.085256 L151.45539 -84.953134 L152.12377 -85.627481 L152.83392 -86.12578 L153.46053 -87.053751 L154.05729 -87.537133 L154.57648 -87.954869 L155.69244 -88.110028 L156.1547 -88.289797 Z "  fill="#E8ABEB" fill-rule="evenodd" stroke="#6E6E6E" fill-opacity="1" stroke-opacity="1"  stroke-width="0.7" stroke-linecap="round" stroke-linejoin="round" stroke-miterlimit="10" />
</g>
</g>
<g clip-path="url(#cp_2)">
<g transform="matrix(4.1666667 0 0 -4.1666667 980.75633 845.49395)">
<path d="M197.8936 -134.04169 L198.35387 -134.42551 L198.78012 -134.87985 L199.33181 -135.4899 L199.72042 -136.09515 L199.70131 -136.70997 L194.3517 -136.73484 L194.14814 -136.7532 L194.09794 -136.02926 L193.99477 -134.17069 L197.2602 -133.97239 L197.8936 -134.04169 Z "  fill="#C9CEF2" fill-rule="evenodd" stroke="#6E6E6E" fill-opacity="1" stroke-opacity="1"  stroke-width="0.7" stroke-linecap="round" stroke-linejoin="round" stroke-miterlimit="10" />
</g>
</g>
<g clip-path="url(#cp_2)">
<g transform="matrix(4.1666667 0 0 -4.1666667 980.75633 845.49395)">
<path d="M205.34936 -137.36115 L205.49855 -137.65954 L204.67502 -137.65357 L204.46615 -137.59986 L204.00664 -137.50438 L203.55608 -137.68639 L203.40987 -137.42679 L203.48745 -136.53165 L203.71422 -136.31084 L204.0126 -136.68084 L205.34936 -137.36115 Z M197.8936 -134.04169 L197.2602 -133.97239 L193.99477 -134.17069 L194.09794 -136.02926 L194.14814 -136.7532 L194.3517 -136.73484 L199.70131 -136.70997 L199.72042 -136.09515 L199.33181 -135.4899 L198.78012 -134.87985 L198.35387 -134.42551 L197.8936 -134.04169 L198.20607 -133.97152 L198.28365 -133.52394 L198.13446 -132.77202 L198.28961 -132.4796 L198.588 -132.4796 L198.88041 -133.00476 L199.47718 -133.75072 L199.92476 -133.8283 L200.22314 -133.4583 L200.59313 -133.38669 L200.9691 -133.0883 L201.19587 -133.2375 L201.33909 -133.61346 L202.22827 -134.95618 L203.04584 -135.40973 L203.26665 -135.93488 L202.96229 -137.12245 L202.62214 -138.28017 L203.63067 -137.95195 L204.15583 -137.95195 L205.12259 -138.17872 L205.42097 -138.47711 L205.26581 -138.92468 L204.59147 -139.29467 L203.5143 -138.99331 L203.7739 -139.36629 L204.37066 -139.74225 L204.58355 -139.95826 L157.37818 -159.48607 L157.44024 -147.35353 L157.67318 -136.08132 L157.67178 -123.91035 L157.66815 -112.01 L167.69466 -112.07674 L174.77064 -112.09576 L174.91716 -112.10781 L176.44982 -112.26145 L176.63277 -112.28114 L176.86678 -112.26352 L177.73023 -112.28717 L178.71365 -112.28875 L180.47528 -112.29491 L182.93482 -113.74711 L183.97916 -114.80339 L184.17609 -115.20322 L184.25367 -115.35838 L184.64754 -116.14611 L185.23834 -116.59965 L186.87944 -117.05319 L187.56274 -117.53359 L187.91782 -118.18108 L187.91185 -119.27913 L187.91185 -119.52381 L188.72942 -120.04896 L189.24264 -121.02169 L189.30231 -122.19135 L189.31425 -122.36441 L188.93232 -123.33118 L189.45747 -123.85633 L191.2418 -124.53664 L192.13695 -124.6918 L192.51292 -124.31584 L192.66211 -123.57585 L192.51889 -122.67473 L191.64164 -119.24333 L191.27761 -117.14868 L191.50438 -116.70707 L191.80276 -116.55788 L192.10115 -116.85626 L193.12759 -120.44283 L193.11565 -122.23313 L193.55726 -123.65343 L194.22564 -124.32778 L194.8224 -124.70374 L195.26401 -125.15131 L195.33562 -126.19566 L195.29982 -126.81629 L195.25207 -127.68757 L195.03127 -127.68757 L194.88208 -127.38919 L194.66128 -127.16242 L194.50612 -127.38919 L194.87611 -128.43353 L196.72609 -131.72171 L197.17366 -132.09767 L197.39446 -132.54525 L197.16769 -132.77202 L196.94092 -132.76605 L196.86931 -132.99282 L197.8936 -134.04169 Z "  fill="#F2C0ED" fill-rule="evenodd" stroke="#6E6E6E" fill-opacity="1" stroke-opacity="1"  stroke-width="0.7" stroke-linecap="round" stroke-linejoin="round" stroke-miterlimit="10" />
</g>
</g>
<g clip-path="url(#cp_2)">
<g transform="matrix(4.1666667 0 0 -4.1666667 980.75633 845.49395)">
<path d="M157.67318 -136.08132 L157.44024 -147.35353 L157.37818 -159.48607 L134.28862 -169.04074 L131.35928 -168.95396 L131.31508 -164.20846 L129.09768 -164.17122 L129.1066 -160.9748 L129.16409 -160.01874 L129.58233 -158.74227 L129.27569 -156.6032 L131.53477 -156.7444 L131.48174 -155.96094 L131.61705 -155.79657 L132.40073 -154.82333 L132.92799 -154.23934 L133.27952 -154.33047 L133.92658 -153.33677 L136.48221 -153.79472 L135.54571 -153.34925 L136.59108 -151.48046 L136.88536 -151.142 L138.43974 -151.8675 L138.82954 -149.50056 L140.80138 -149.2917 L140.84003 -144.17425 L138.8208 -144.14242 L138.72041 -141.10139 L139.83716 -140.91115 L139.96315 -139.45757 L140.86598 -139.3028 L141.08397 -129.61209 L149.89132 -129.25162 L150.16737 -129.51128 L152.15959 -131.3693 L153.26014 -132.39854 L153.17276 -132.76717 L150.32578 -132.82556 L150.53048 -136.23453 L149.31729 -136.38363 L149.40665 -138.36166 L150.27605 -138.50749 L150.55745 -138.74531 L150.52101 -139.63063 L153.48511 -139.78606 L153.58747 -139.0935 L153.63797 -138.73974 L154.64562 -138.76018 L154.64275 -135.50063 L154.58407 -135.04423 L154.81303 -134.81374 L155.82748 -134.84217 L155.99574 -135.99566 L157.67318 -136.08132 Z "  fill="#AAA1E4" fill-rule="evenodd" stroke="#6E6E6E" fill-opacity="1" stroke-opacity="1"  stroke-width="0.7" stroke-linecap="round" stroke-linejoin="round" stroke-miterlimit="10" />
</g>
</g>
<g clip-path="url(#cp_2)">
<g transform="matrix(4.1666667 0 0 -4.1666667 980.75633 845.49395)">
<path d="M208.27948 -133.72088 L209.98027 -136.41229 L210.86643 -137.35957 L209.74127 -137.82487 L207.3724 -135.4336 L206.85321 -135.27844 L206.85321 -135.57682 L209.14105 -138.07309 L208.68346 -138.26233 L207.43804 -136.84793 L206.19677 -135.85133 L205.28372 -135.12328 L205.14049 -134.82489 L205.28968 -134.6757 L206.02967 -135.05167 L206.40564 -134.75328 L206.04161 -132.96298 L205.3792 -131.69187 L205.82677 -131.47107 L206.53394 -131.58744 L207.86175 -133.20766 L208.27948 -133.72088 Z M204.86001 -130.27157 L204.56163 -130.71914 L204.33784 -130.55802 L203.97083 -129.81803 L203.89922 -129.22126 L204.1976 -129.07804 L204.79437 -129.60319 L204.86001 -130.27157 Z M201.8165 -128.46933 L201.88215 -129.21529 L201.66134 -129.20932 L201.22869 -128.56183 L200.77216 -127.41902 L200.84974 -126.97145 L201.21974 -127.41902 L201.8165 -128.46933 Z M164.82296 -81.963335 L164.52458 -82.184137 L163.8562 -81.808177 L163.11621 -81.133829 L162.51944 -80.310292 L162.2414 -79.489744 L163.39329 -79.200129 L163.59229 -79.146752 L164.11044 -79.014573 L164.16652 -79.42111 L163.64136 -80.31626 L163.86217 -80.913026 L164.61708 -81.536646 L164.82296 -81.963335 Z M169.4658 -78.329029 L169.245 -78.555798 L168.20066 -78.323061 L167.91884 -78.04124 L169.33471 -77.646244 L169.4658 -78.329029 Z M153.33809 -74.074084 L153.95202 -74.791666 L153.2994 -74.372469 L153.33809 -74.074084 Z M150.54831 -71.657181 L150.24993 -71.800405 L149.50993 -71.27525 L148.39398 -70.153329 L148.24479 -69.854946 L148.20898 -69.592368 L147.21835 -68.267547 L146.17998 -67.181434 L146.03079 -66.960631 L145.84579 -66.435475 L145.02822 -65.576132 L144.35387 -64.937592 L144.01968 -64.269214 L142.68293 -62.992132 L142.49793 -62.544558 L142.64712 -62.323755 L142.98131 -62.323755 L143.3155 -62.586332 L144.43145 -64.042443 L144.69403 -64.531792 L145.39822 -65.164365 L145.95918 -65.725324 L146.66336 -66.960631 L148.59688 -69.598338 L148.91914 -70.153329 L149.8859 -70.982835 L150.54831 -71.657181 Z M-11.630632 -62.815438 L-11.638711 -63.671486 L-13.934953 -61.577434 L-11.618562 -61.610642 L-11.630632 -62.815438 Z M127.04168 -55.454976 L127.03598 -55.81442 L126.91088 -55.517223 L126.78385 -55.19714 L127.04168 -55.454976 Z M147.68793 -31.470681 L163.23002 -31.782004 L163.4399 -31.766892 L164.53068 -31.782627 L164.96999 -31.782108 L166.33935 -31.822437 L166.476 -32.013995 L167.21898 -32.777856 L167.37115 -32.461569 L167.55615 -32.348183 L167.89631 -32.461569 L168.60049 -33.064302 L168.52291 -33.583489 L168.70791 -33.846067 L168.97049 -34.407027 L169.93725 -35.302177 L169.93725 -35.636366 L170.05063 -35.976522 L169.97305 -36.197326 L169.56128 -36.197326 L169.00032 -36.310711 L168.74372 -36.495709 L168.70194 -36.794092 L169.2271 -37.128281 L170.22966 -38.136817 L170.89804 -38.960355 L170.93385 -39.258738 L170.78466 -39.55712 L170.78466 -39.933082 L171.19045 -40.416464 L172.86737 -41.055004 L174.0251 -41.31758 L174.39509 -41.472741 L174.69348 -41.771124 L174.72928 -42.14112 L174.6159 -42.481276 L174.58009 -42.964657 L174.4667 -43.376424 L174.4667 -44.008998 L174.16832 -44.605764 L173.86994 -44.754955 L173.19559 -44.748988 L172.52721 -44.414799 L172.33625 -44.522216 L172.22883 -44.713181 L171.63206 -44.856406 L171.32771 -45.047371 L171.2561 -45.30398 L171.32771 -45.751554 L171.17852 -45.900746 L170.54595 -45.900746 L170.39932 -46.150994 L169.85623 -46.159042 L169.67653 -46.157247 L150.78888 -45.930025 L150.78891 -46.215979 L150.78638 -46.456127 L150.69814 -55.764273 L150.67131 -58.636787 L143.40652 -58.617028 L143.32001 -61.420567 L143.31049 -61.783943 L142.98728 -61.428607 L142.6889 -61.315219 L142.24132 -61.351025 L141.94294 -61.685216 L141.75197 -61.685216 L140.9344 -61.160062 L137.62235 -58.58203 L137.17478 -58.319453 L136.5422 -57.7943 L136.1006 -57.555593 L135.68883 -57.340758 L135.24125 -56.779796 L134.87126 -56.183029 L134.57287 -55.920452 L133.64192 -55.323685 L132.89596 -54.577729 L132.19178 -53.789997 L131.85759 -52.894848 L131.67259 -52.70985 L131.14744 -52.96646 L130.88486 -52.554691 L130.06729 -52.369694 L129.39891 -52.441305 L128.91255 -52.217518 L129.10053 -51.844537 L129.32133 -51.653575 L129.06472 -51.134386 L129.06472 -50.424235 L128.84392 -50.275044 L128.69473 -50.38843 L128.35457 -51.056808 L128.05619 -51.277611 L127.83538 -51.390997 L127.68023 -51.653575 L127.31407 -51.592126 L126.54865 -51.038669 L123.35304 -51.052864 L123.33751 -51.267654 L123.28296 -52.264237 L123.29126 -60.275123 L127.66892 -60.358495 L127.95132 -60.393517 L127.76767 -58.970295 L127.72042 -58.728259 L127.73033 -58.429144 L127.59747 -57.690201 L127.51527 -57.303512 L127.78167 -57.060277 L129.23778 -57.10205 L129.60778 -57.030438 L130.16874 -57.030438 L130.61631 -57.17963 L130.95051 -57.519787 L131.05792 -58.003167 L130.75954 -58.486548 L130.6745 -58.981866 L130.75954 -59.572662 L131.16534 -59.978465 L131.41002 -59.981447 L131.3205 -59.459278 L131.83969 -59.011703 L132.13807 -58.862512 L132.47226 -58.975896 L132.73484 -59.501049 L133.10483 -59.763627 L133.36741 -60.175396 L133.62998 -60.360393 L134.22078 -60.622972 L134.94884 -61.297317 L135.7127 -62.007469 L136.94204 -62.759396 L137.75961 -63.541158 L138.16541 -64.030507 L138.79798 -65.409037 L139.24555 -65.856613 L140.16846 -65.862437 L139.95811 -66.044691 L139.40687 -66.04035 L139.06429 -66.033963 L138.4181 -66.051128 L137.9486 -66.036709 L137.82834 -66.655404 L137.64514 -66.683919 L137.58518 -66.977179 L138.03276 -67.161874 L138.0458 -67.346461 L137.80895 -67.550209 L137.86734 -67.678896 L137.91428 -67.937498 L136.21245 -67.963959 L136.10047 -68.283184 L135.91618 -68.389635 L135.6873 -68.441854 L135.34462 -68.443389 L135.3365 -68.863275 L135.26191 -69.611508 L134.07947 -69.598463 L133.32347 -69.590101 L132.79405 -69.58158 L132.77691 -69.945634 L133.05795 -70.623939 L130.99812 -70.561464 L131.13486 -72.630356 L131.16576 -72.991627 L131.39482 -75.31897 L135.12416 -75.247028 L135.18742 -75.462467 L135.18641 -82.811667 L135.71913 -82.817527 L143.69446 -82.927462 L146.08641 -82.960394 L145.99455 -90.62039 L150.76897 -90.736713 L150.68962 -95.407945 L152.84309 -95.395398 L155.60469 -95.381072 L155.5521 -91.318518 L155.54724 -91.11379 L155.54293 -90.898122 L155.52385 -90.169449 L155.4978 -89.776413 L155.83521 -90.051271 L155.88329 -89.879271 L155.91556 -88.706616 L156.1547 -88.289797 L156.6592 -88.485991 L158.59272 -90.658221 L159.63109 -91.481757 L161.19462 -91.714496 L161.863 -92.168038 L162.10767 -93.671891 L162.22702 -94.405912 L162.74621 -94.853487 L162.8954 -94.710264 L162.68653 -93.952371 L162.60299 -93.659953 L162.75218 -93.361571 L163.19976 -93.367539 L164.32168 -93.671891 L169.59709 -96.906364 L170.19386 -97.431517 L170.56385 -98.028284 L171.38142 -98.851823 L172.2706 -99.526167 L172.86737 -100.1289 L173.89978 -102.44436 L174.63977 -103.41708 L174.78299 -104.53901 L175.2246 -105.43415 L175.51701 -106.62769 L176.33458 -107.308 L177.58779 -109.77265 L178.10698 -110.59618 L179.22293 -111.56891 L180.06437 -112.05229 L180.47528 -112.29491 L178.71365 -112.28875 L177.73023 -112.28717 L176.86678 -112.26352 L176.63277 -112.28114 L176.44982 -112.26145 L174.91716 -112.10781 L174.77064 -112.09576 L167.69466 -112.07674 L157.66815 -112.01 L157.67178 -123.91035 L157.67318 -136.08132 L155.99574 -135.99566 L155.82748 -134.84217 L154.81303 -134.81374 L154.58407 -135.04423 L154.64275 -135.50063 L154.64562 -138.76018 L153.63797 -138.73974 L153.58747 -139.0935 L153.48511 -139.78606 L150.52101 -139.63063 L150.55745 -138.74531 L150.27605 -138.50749 L149.40665 -138.36166 L149.31729 -136.38363 L150.53048 -136.23453 L150.32578 -132.82556 L153.17276 -132.76717 L153.26014 -132.39854 L152.15959 -131.3693 L150.16737 -129.51128 L149.89132 -129.25162 L141.08397 -129.61209 L129.31314 -130.01791 L129.02788 -130.02833 L128.71971 -126.25909 L128.70302 -126.06937 L128.62308 -125.04587 L125.17636 -125.09804 L124.98305 -125.10117 L117.23495 -125.21779 L117.12411 -127.32235 L109.93641 -127.4079 L109.9347 -125.28213 L107.38279 -125.23946 L107.35931 -123.00926 L88.482459 -122.87161 L88.355447 -121.30092 L85.687932 -121.18945 L85.548277 -121.69394 L76.999796 -121.58085 L77.021153 -114.41351 L74.141594 -114.24533 L74.129851 -110.22047 L66.26182 -110.04715 L62.604559 -109.97239 L61.857717 -109.95988 L55.709809 -109.60479 L55.706191 -102.88951 L55.496076 -102.39372 L50.64864 -102.63164 L50.608805 -104.31439 L48.779277 -104.51515 L48.634419 -103.14836 L45.55331 -103.15739 L44.757628 -102.35161 L44.919433 -101.48332 L44.336026 -101.22982 L44.293034 -100.73293 L43.697087 -100.6617 L43.590045 -99.961561 L42.689416 -99.994275 L42.395745 -98.823789 L41.784362 -98.670705 L41.830076 -98.018449 L38.150198 -98.226844 L38.030916 -98.163477 L37.786737 -97.499225 L37.301349 -97.432078 L37.310881 -96.7488 L36.662314 -96.853205 L36.686003 -96.126998 L35.841757 -96.196141 L35.600757 -93.624334 L34.536182 -93.738128 L34.430265 -90.577681 L32.122926 -90.659326 L32.236108 -89.696844 L32.23245 -89.491767 L30.1885 -89.333483 L30.078238 -89.345854 L29.609753 -95.364545 L27.213186 -95.335776 L27.102299 -94.716466 L26.134962 -94.747113 L26.0047 -94.751222 L24.851145 -94.787797 L24.921043 -94.330975 L24.109455 -94.195261 L24.088194 -93.119402 L24.072204 -92.833199 L21.794416 -92.911236 L21.71346 -94.056072 L-8.492125 -66.541068 L-4.473796 -66.56009 L-4.3787461 -65.994882 L4.3426233 -66.32364 L4.2887564 -67.909991 L5.5111972 -67.922958 L8.5947081 -67.968855 L12.311316 -68.025122 L13.240125 -68.040114 L13.383842 -69.163579 L19.035876 -69.195713 L19.092202 -70.818837 L18.559729 -71.016128 L18.570724 -73.23377 L18.942515 -73.309503 L18.949216 -74.231228 L18.955258 -74.957869 L18.95895 -75.846375 L18.956345 -76.266343 L18.940974 -76.873903 L19.316261 -76.952337 L19.355361 -78.170459 L19.361734 -78.393494 L19.371121 -78.679606 L20.430906 -78.657141 L20.601617 -80.441153 L22.582953 -80.540753 L23.196295 -80.205219 L23.32718 -80.204448 L24.393633 -80.207163 L25.406379 -80.209077 L25.664301 -79.886321 L27.291272 -79.56786 L27.436986 -78.230968 L29.296402 -78.234875 L29.308019 -75.296342 L28.176632 -75.203943 L28.131633 -73.918077 L27.086195 -73.864683 L27.215479 -72.057125 L29.490564 -72.066961 L29.610801 -68.27403 L26.800302 -68.233992 L26.989955 -65.439981 L27.954131 -65.11203 L28.504399 -65.033613 L28.452965 -66.101141 L33.234061 -65.969163 L33.236462 -65.551183 L34.39056 -65.433403 L34.525839 -64.815584 L35.918135 -65.01693 L35.926874 -66.075354 L36.462092 -66.135931 L36.574561 -66.927084 L38.45779 -67.054903 L38.765517 -68.405452 L39.631061 -68.417495 L39.810248 -64.162906 L38.804609 -64.376498 L38.700703 -63.97031 L38.129023 -63.866129 L38.061813 -63.427274 L37.02293 -63.428026 L36.776895 -63.885061 L36.182165 -63.432514 L35.502735 -62.826822 L35.204413 -62.498841 L35.068173 -62.254082 L35.179409 -61.435211 L36.45422 -62.17731 L36.548698 -61.383744 L38.307883 -61.557616 L38.47551 -62.182326 L39.103035 -62.317799 L39.159343 -62.599911 L40.628986 -62.648204 L40.729646 -63.431215 L41.109802 -63.370798 L41.284834 -63.717586 L41.778381 -63.916837 L41.772495 -64.342065 L42.418022 -64.37886 L42.601221 -64.388691 L42.814099 -64.398929 L43.096603 -64.203113 L43.500229 -64.150292 L43.60344 -64.896171 L45.122417 -65.09423 L45.185576 -65.580786 L45.733705 -65.464233 L45.724331 -66.147517 L46.777898 -66.291338 L46.777119 -67.943127 L46.781027 -68.518771 L50.193915 -68.562648 L50.183742 -69.311606 L50.670321 -69.326174 L50.820091 -70.064693 L53.623461 -70.155676 L53.687571 -71.553875 L56.697677 -71.409184 L56.646923 -70.960642 L57.26684 -70.931114 L57.292976 -70.478293 L58.651563 -70.253584 L58.682652 -68.674205 L57.690091 -68.660962 L55.728978 -68.634711 L55.588588 -63.449548 L53.315637 -63.330051 L53.371208 -60.440577 L50.597 -60.223219 L50.621684 -56.219297 L48.193566 -56.282445 L48.158444 -51.280443 L49.372416 -50.889605 L49.62498 -51.151149 L50.154083 -51.163655 L50.513115 -50.976117 L50.883389 -50.892236 L51.114307 -51.077834 L52.011964 -50.907536 L52.233925 -51.23964 L52.619766 -51.262774 L53.194421 -51.359449 L53.604835 -51.534183 L53.82209 -51.699008 L54.208434 -51.426207 L54.907518 -50.934009 L55.387432 -50.677714 L55.47491 -50.337184 L55.37662 -49.988851 L55.48561 -49.800552 L55.948971 -49.73578 L56.370394 -49.349302 L56.742964 -49.12406 L57.011702 -48.702354 L57.268978 -48.35414 L57.546257 -48.304105 L57.927727 -48.390818 L58.424277 -48.354321 L59.142711 -48.135657 L59.690089 -48.016882 L60.26764 -47.892527 L60.905547 -47.723846 L61.427754 -47.264993 L61.976621 -47.29549 L62.579865 -47.470011 L63.463602 -47.102161 L64.083579 -47.04996 L64.737751 -47.167388 L65.356715 -47.175526 L66.048596 -47.212477 L66.475434 -47.399873 L67.033554 -47.723673 L67.502801 -48.238717 L67.946181 -48.697681 L68.538672 -49.199056 L69.090183 -49.565198 L69.449711 -50.301717 L69.864931 -50.648821 L70.184588 -50.627762 L70.565368 -50.5365 L71.222232 -50.722173 L71.827494 -51.018633 L72.557496 -51.184658 L73.264349 -51.353022 L73.775183 -51.496287 L74.40195 -51.684162 L75.105797 -52.087989 L75.471736 -52.371354 L75.980015 -52.443559 L76.394351 -52.866868 L76.907991 -53.032678 L77.403261 -53.099386 L78.129595 -53.318981 L78.594221 -53.428407 L79.237687 -53.611758 L79.796809 -53.874308 L80.30071 -54.328561 L81.09113 -54.728711 L81.551774 -54.913682 L81.753688 -54.992536 L81.904361 -54.913494 L82.243049 -54.735311 L82.676063 -54.447511 L83.213732 -54.580351 L83.988006 -54.428203 L84.253867 -49.453367 L88.475266 -49.397336 L88.629446 -50.120468 L92.193069 -50.197762 L94.2794 -48.388207 L95.843772 -50.004371 L98.494732 -47.989133 L99.409363 -48.331964 L100.60839 -48.53622 L101.50872 -48.765365 L102.7026 -49.037157 L103.58276 -49.204299 L104.49531 -49.435499 L105.31598 -50.128689 L105.74241 -50.627404 L106.0875 -50.995766 L106.55852 -51.158616 L107.17674 -51.234302 L109.96668 -51.47697 L110.54275 -52.577174 L113.78663 -52.741922 L114.02103 -52.061274 L113.95249 -44.513393 L116.93966 -44.629072 L122.60647 -44.902556 L122.87061 -44.920166 L122.92248 -44.464949 L122.95387 -44.160107 L122.95858 -44.002032 L123.01011 -43.742095 L122.98977 -43.499029 L122.99678 -42.884067 L123.01745 -42.256653 L123.00448 -42.074712 L123.05759 -40.763623 L121.83641 -40.756977 L121.91172 -35.92639 L123.0395 -35.924009 L123.28991 -31.171712 L141.12832 -31.42531 L147.68793 -31.470681 Z "  fill="#B2D5F2" fill-rule="evenodd" stroke="#6E6E6E" fill-opacity="1" stroke-opacity="1"  stroke-width="0.7" stroke-linecap="round" stroke-linejoin="round" stroke-miterlimit="10" />
</g>
</g>
<g clip-path="url(#cp_2)">
<g transform="matrix(4.1666667 0 0 -4.1666667 980.75633 845.49395)">
<path d="M141.08397 -129.61209 L140.86598 -139.3028 L139.96315 -139.45757 L139.83716 -140.91115 L138.72041 -141.10139 L138.8208 -144.14242 L140.84003 -144.17425 L140.80138 -149.2917 L138.82954 -149.50056 L138.43974 -151.8675 L136.88536 -151.142 L136.59108 -151.48046 L135.54571 -153.34925 L136.48221 -153.79472 L133.92658 -153.33677 L133.27952 -154.33047 L132.92799 -154.23934 L132.40073 -154.82333 L131.61705 -155.79657 L131.48174 -155.96094 L131.53477 -156.7444 L129.27569 -156.6032 L129.58233 -158.74227 L129.16409 -160.01874 L129.1066 -160.9748 L129.09768 -164.17122 L131.31508 -164.20846 L131.35928 -168.95396 L134.28862 -169.04074 L113.34732 -177.70809 L21.71346 -94.056072 L21.794416 -92.911236 L24.072204 -92.833199 L24.088194 -93.119402 L24.109455 -94.195261 L24.921043 -94.330975 L24.851145 -94.787797 L26.0047 -94.751222 L26.134962 -94.747113 L27.102299 -94.716466 L27.213186 -95.335776 L29.609753 -95.364545 L30.078238 -89.345854 L30.1885 -89.333483 L32.23245 -89.491767 L32.236108 -89.696844 L32.122926 -90.659326 L34.430265 -90.577681 L34.536182 -93.738128 L35.600757 -93.624334 L35.841757 -96.196141 L36.686003 -96.126998 L36.662314 -96.853205 L37.310881 -96.7488 L37.301349 -97.432078 L37.786737 -97.499225 L38.030916 -98.163477 L38.150198 -98.226844 L41.830076 -98.018449 L41.784362 -98.670705 L42.395745 -98.823789 L42.689416 -99.994275 L43.590045 -99.961561 L43.697087 -100.6617 L44.293034 -100.73293 L44.336026 -101.22982 L44.919433 -101.48332 L44.757628 -102.35161 L45.55331 -103.15739 L48.634419 -103.14836 L48.779277 -104.51515 L50.608805 -104.31439 L50.64864 -102.63164 L55.496076 -102.39372 L55.706191 -102.88951 L55.709809 -109.60479 L61.857717 -109.95988 L62.604559 -109.97239 L66.26182 -110.04715 L74.129851 -110.22047 L74.141594 -114.24533 L77.021153 -114.41351 L76.999796 -121.58085 L85.548277 -121.69394 L85.687932 -121.18945 L88.355447 -121.30092 L88.482459 -122.87161 L107.35931 -123.00926 L107.38279 -125.23946 L109.9347 -125.28213 L109.93641 -127.4079 L117.12411 -127.32235 L117.23495 -125.21779 L124.98305 -125.10117 L125.17636 -125.09804 L128.62308 -125.04587 L128.70302 -126.06937 L128.71971 -126.25909 L129.02788 -130.02833 L129.31314 -130.01791 L141.08397 -129.61209 Z "  fill="#EBC8A6" fill-rule="evenodd" stroke="#6E6E6E" fill-opacity="1" stroke-opacity="1"  stroke-width="0.7" stroke-linecap="round" stroke-linejoin="round" stroke-miterlimit="10" />
</g>
</g>
</g>
<!-- Begin_Label-->
<clipPath id="cp_3">
<path d="M1882.5663 1622.4473 L1882.5663 68.540605 L78.94633 68.540605 L78.94633 1622.4473 Z " />
</clipPath>
<g clip-path="url(#cp_3)">
<g id="EmbdFile__1" transform="matrix(1 0 0 1 78.94633 68.540605)">
<g>
<g color-interpolation="linearRGB" transform="scale(1,1)">
</g>
</g>
</g>
</g>
<!-- End_Label-->
</g>
</g>
</svg>
