<?xml version="1.0" encoding="utf-8" standalone="no"?>
<!DOCTYPE svg PUBLIC "-//W3C//DTD SVG 1.1//EN" "http://www.w3.org/Graphics/SVG/1.1/DTD/svg11.dtd">
<svg version="1.1" xmlns="http://www.w3.org/2000/svg" xmlns:xlink="http://www.w3.org/1999/xlink" width="468pt" height="397pt" viewBox="0 0 468 397" xml:space="preserve" enable-background="new 0 0 468 397">
<g color-interpolation="linearRGB" transform="scale(0.24,0.24)">
<g>
	<rect x="0" y="0" width="1948.815" height="1653.54" fill="#FFFFFF" fill-opacity="0" />
</g>
<g id="Map_Frame">
<g id="rivers">
<clipPath id="cp_2">
<path d="M1882.5663 1622.4473 L1882.5663 68.540605 L78.94633 68.540605 L78.94633 1622.4473 Z " />
</clipPath>
<g clip-path="url(#cp_2)">
<g transform="matrix(4.1666667 0 0 -4.1666667 980.75633 845.49395)">
<path d="M-58.361675 146.90252 L-58.600381 147.88121 L-58.624252 148.32879 L-58.307966 149.10458 L-58.063291 149.88038 L-57.920067 150.99633 L-57.943938 151.44391 "  stroke="#005CE6" fill="none" stroke-opacity="1" stroke-width="1" stroke-linecap="round" stroke-linejoin="round" stroke-miterlimit="10" />
</g>
</g>
<g clip-path="url(#cp_2)">
<g transform="matrix(4.1666667 0 0 -4.1666667 980.75633 845.49395)">
<path d="M-58.361675 146.90252 L-58.667521 147.06516 L-59.394081 147.45154 L-59.816844 147.61178 L-60.134071 147.73202 L-60.384713 147.92895 L-60.450357 148.29895 L-60.331003 148.66894 L-59.901332 149.44474 "  stroke="#005CE6" fill="none" stroke-opacity="1" stroke-width="1" stroke-linecap="round" stroke-linejoin="round" stroke-miterlimit="10" />
</g>
</g>
<g clip-path="url(#cp_2)">
<g transform="matrix(4.1666667 0 0 -4.1666667 980.75633 845.49395)">
<path d="M-187.4661 128.2297 L-187.09014 128.25357 L-186.82756 128.17002 L-186.20096 127.97309 L-185.42516 127.65083 L-184.41662 127.69857 L-183.8497 128.13421 L-183.76018 128.6534 L-183.65873 128.9667 L-183.0918 129.90661 L-182.43536 130.67047 L-181.77892 131.54772 L-181.61182 132.18029 L-181.37312 132.8427 L-180.80022 133.31415 L-180.01249 133.55285 L-179.55895 133.76769 L-178.90847 134.34655 L-178.33557 134.77622 L-177.39865 135.05074 L-177.20769 135.19396 L-176.23496 136.66201 L-175.36368 137.27667 L-174.34918 137.54522 L-173.92547 137.94505 L-173.4958 138.71488 L-173.25709 139.23407 L-172.97065 140.30825 L-172.96468 140.57082 L-173.06016 141.0542 L-173.3108 141.43614 L-173.53161 141.66291 L-174.51627 142.47451 L-174.64756 142.99966 L-174.52821 143.33385 L-174.34321 143.44127 L-173.84192 143.94852 L-173.82999 144.3961 L-174.37305 145.08238 L-174.46853 145.52995 L-174.4924 146.05511 L-174.36708 146.72349 L-173.9195 147.94089 L-173.38241 148.67491 L-173.06613 149.18813 L-173.24814 149.39998 L-173.88967 149.17619 L-174.29845 149.18515 L-174.36111 149.7849 L-174.05079 150.22054 L-173.62709 150.54876 L-173.12581 150.80537 L-172.87516 150.93666 L-172.34404 151.29471 L-171.27285 152.24357 L-170.77455 152.78663 L-170.57165 153.22824 L-170.39262 154.45161 L-169.85553 154.96483 L-169.55714 154.95289 L-169.19311 154.75596 L-168.9007 154.33822 L-168.61425 154.03387 L-167.60572 154.01 L-167.30733 154.07565 L-166.8896 154.3979 L-164.94414 157.44141 L-164.46076 158.66478 L-164.3056 158.993 L-164.01915 159.91799 L-163.95947 160.73556 L-164.09076 161.48748 L-164.37124 162.09022 L-164.2877 162.3886 L-164.1027 162.41844 L-163.66109 162.1857 L-163.3269 162.13796 L-162.90917 162.42441 L-162.70627 163.01521 L-162.72417 163.72536 L-162.939 164.02971 L-163.27319 164.19084 L-163.72077 164.16696 L-164.35931 164.02971 L-164.84269 164.08342 L-165.05752 164.31019 L-165.04559 164.83534 L-164.84866 165.12776 L-164.07286 166.26161 L-163.46416 166.73306 L-162.28853 167.44918 L-161.24419 167.41934 L-160.58178 167.10305 L-160.1342 167.14781 L-159.97904 167.38354 L-159.91937 168.12949 L-159.41808 168.78594 L-159.3226 169.64528 L-159.16744 169.82431 L-158.67809 170.07495 L-158.08133 169.98544 L-157.71133 169.7885 L-157.38908 169.32899 L-157.13844 169.06642 L-156.42828 169.04255 L-154.28589 169.69899 L-153.68913 169.68109 L-153.06252 169.47818 L-152.57317 169.46625 L-151.58851 170.07495 L-151.14093 170.13463 L-150.62175 169.9735 L-149.88772 169.54383 L-148.79564 168.58303 L-148.09743 168.18917 L-147.7334 167.88482 L-147.23211 167.08515 L-146.79051 166.81064 L-146.11616 166.83451 L-145.22101 166.88225 L-144.43328 166.97177 L-144.20651 167.07918 L-143.90216 167.44321 L-143.65152 168.33239 L-143.51426 168.64868 L-143.377 168.959 L-142.83395 169.69302 L-142.59524 170.31963 L-142.60694 170.80721 L-142.61314 171.06558 L-142.70266 171.73993 L-142.70266 173.17031 L-142.70266 173.30942 L-142.94733 173.83458 L-144.18264 175.09972 L-144.9286 176.15202 L-145.66859 176.66922 L-146.81438 177.18244 L-147.73937 177.51066 L-149.63112 177.82098 L-150.18611 177.9821 "  stroke="#005CE6" fill="none" stroke-opacity="1" stroke-width="1" stroke-linecap="round" stroke-linejoin="round" stroke-miterlimit="10" />
</g>
</g>
<g clip-path="url(#cp_2)">
<g transform="matrix(4.1666667 0 0 -4.1666667 980.75633 845.49395)">
<path d="M-62.109368 119.50497 L-60.116168 120.12561 L-59.740205 120.37625 L-59.388112 120.81189 L-59.376177 121.25947 L-59.990846 122.17252 L-59.972944 122.80509 L-59.668593 123.01993 L-59.107633 123.0796 L-58.773444 122.99606 L-58.516834 122.8767 L-58.182645 122.83493 L-57.508298 122.93041 L-56.974193 123.14823 L-56.481861 123.57492 L-55.747839 124.48797 L-55.330102 124.73265 L-54.960107 124.6491 L-54.637853 124.30894 L-54.273826 123.81363 L-53.915766 123.4317 L-53.509964 123.08557 L-53.098196 123.14525 L-52.644653 123.4317 L-52.376109 123.80169 L-52.286594 124.20749 L-52.388044 124.69684 L-52.364174 125.4786 L-51.803213 127.0302 L-51.373541 127.8418 L-50.60968 128.37889 L-50.22775 128.8563 L-50.132268 129.67387 L-50.006946 130.11548 L-49.475824 130.51531 L-49.350202 130.71467 L-49.202712 130.97511 L-49.225182 131.36272 L-49.440018 131.81626 L-49.94727 132.31755 L-50.591778 132.6577 L-51.272091 133.02173 L-52.376109 133.46334 L-54.387212 135.00896 L-54.894463 135.54605 L-55.652356 136.72168 L-55.926868 137.47361 L-56.199299 138.48518 L-56.183477 139.0073 L-55.753806 139.8547 L-55.658323 140.60066 L-55.718 141.12582 L-56.141704 141.99113 L-56.528557 142.64878 L-56.678793 142.90418 L-56.732503 143.10111 L-56.834748 143.44875 L-56.911533 143.95449 L-56.88403 144.26672 L-56.810083 145.10625 L-57.162174 145.82834 L-57.884261 146.628 L-58.361675 146.90252 "  stroke="#005CE6" fill="none" stroke-opacity="1" stroke-width="1" stroke-linecap="round" stroke-linejoin="round" stroke-miterlimit="10" />
</g>
</g>
<g clip-path="url(#cp_2)">
<g transform="matrix(4.1666667 0 0 -4.1666667 980.75633 845.49395)">
<path d="M-157.95795 69.66852 L-157.75907 69.800306 L-156.97134 69.925628 L-155.59281 69.961434 L-152.46576 69.585471 L-151.7198 69.674986 L-150.96787 69.842081 L-148.40774 70.892389 L-147.61405 71.280288 L-147.19631 71.530929 L-146.92776 71.674153 L-145.69246 71.900924 L-144.83311 71.883022 L-143.87232 71.5548 L-142.7683 71.005774 L-142.10589 70.802874 L-140.73333 70.504491 L-139.80237 70.444815 L-138.86545 70.564168 L-136.55596 70.468685 L-136.13823 70.683521 L-135.23711 70.91626 L-134.64034 70.904325 L-133.82874 70.65965 L-133.45278 70.611909 L-132.9694 70.707392 L-132.48005 70.880454 L-130.89265 71.662218 L-130.66588 71.727863 L-129.54993 71.662218 L-128.27882 71.590606 L-127.79544 71.692057 L-127.3777 71.865118 L-123.77323 74.120895 L-123.32566 74.299925 L-122.79453 74.508794 L-122.08438 74.675888 L-120.73569 74.789273 L-120.13892 74.884757 L-119.19603 75.195075 L-118.52765 75.212977 L-117.26848 74.807176 L-116.48671 74.753467 L-115.5856 74.986206 L-115.20963 75.051851 L-113.80723 75.839582 L-111.62904 76.490057 L-110.87711 76.579573 L-110.35196 76.716828 L-109.60003 76.997309 L-108.72278 77.755202 L-107.96489 78.107294 L-107.03394 78.161004 L-106.72958 78.334065 L-105.4346 79.348568 L-104.53349 79.658886 L-103.96059 79.98114 L-103.54285 80.3392 L-103.04157 81.073223 L-102.20013 81.872889 L-101.6332 82.045952 L-100.91708 82.362238 L-100.60676 82.69046 L-100.18306 83.346902 L-99.723548 83.71093 L-99.425165 83.740768 L-98.756787 83.609479 L-98.309212 83.71093 L-97.431966 84.319631 L-96.900844 84.641886 L-95.456668 85.686226 L-94.606277 86.885726 L-94.137815 87.66749 L-93.678305 88.10313 L-92.532514 89.040054 L-92.222196 89.48166 L-91.899942 90.335036 L-91.62543 90.848255 L-91.094308 91.170509 L-90.497541 91.265992 L-90.234964 91.367441 L-90.115611 91.630018 L-90.032063 93.378544 L-89.763518 93.635154 L-89.19659 93.993213 L-88.331279 94.267725 L-87.877737 94.476594 L-87.340647 95.02562 L-86.881137 95.347873 L-86.093406 95.628354 L-85.824861 95.878995 L-85.592121 96.207217 L-85.478736 97.585747 L-85.263901 98.701699 L-85.257933 100.41442 L-85.430995 100.94554 L-85.407125 101.6915 L-85.251965 102.05553 L-84.494071 102.56278 L-84.219559 102.891 L-84.046497 103.85776 L-83.843597 104.48437 L-83.497472 104.81259 L-82.894738 105.12887 L-80.203322 108.15448 L-79.254463 108.65576 L-79.248496 109.02576 L-79.445429 109.92687 L-79.367849 110.14768 L-78.377217 110.79218 L-77.822224 110.81606 L-77.374649 110.61912 L-77.004654 110.57138 L-76.557079 110.67283 L-76.366114 110.81606 L-76.055796 111.29347 L-75.775316 112.03346 L-75.733543 113.4478 L-75.829025 114.12214 L-75.751445 114.34295 L-75.405321 114.67117 L-75.17855 114.701 L-74.187918 114.18779 L-73.776149 114.14004 L-72.869063 114.56375 L-72.385684 114.62939 L-71.896335 114.83826 L-71.663595 115.01729 L-71.192151 115.9005 L-70.613288 116.78372 L-69.921038 117.43419 L-69.091533 117.86387 L-68.787182 118.18612 L-68.309769 119.18272 L-68.315737 120.45383 L-68.005418 120.74028 L-67.43849 121.02673 L-66.793983 121.53398 L-66.412052 121.78462 L-65.851092 121.99349 L-64.955942 121.96962 L-64.770945 121.81446 L-64.520304 121.39672 L-64.383047 120.90737 L-64.030955 120.34045 L-63.625154 119.99432 L-62.891131 119.60046 L-62.109368 119.50497 "  stroke="#005CE6" fill="none" stroke-opacity="1" stroke-width="1" stroke-linecap="round" stroke-linejoin="round" stroke-miterlimit="10" />
</g>
</g>
<g clip-path="url(#cp_2)">
<g transform="matrix(4.1666667 0 0 -4.1666667 980.75633 845.49395)">
<path d="M-71.687467 28.342951 L-71.47263 29.381325 L-71.007153 30.079541 L-70.356678 30.694211 L-69.718138 31.016464 L-67.868163 31.750487 L-67.372846 32.07274 L-67.146074 32.25177 L-66.686565 32.800796 L-65.60045 34.262872 L-65.164811 35.301246 L-64.955942 36.190428 L-65.075295 37.163158 L-65.051425 38.207498 L-64.806751 38.869909 L-64.806751 40.254407 L-65.075295 41.376327 L-65.427388 42.205832 L-66.561244 44.437739 L-67.366878 46.4011 L-67.61752 46.78303 L-67.868163 47.272378 L-68.870729 48.90155 L-69.007986 49.319287 L-69.169113 50.220404 L-69.372014 50.89475 L-69.658461 51.497484 L-69.795718 51.951026 L-69.873297 53.108753 L-70.094101 54.720022 L-70.207486 56.068714 L-70.487966 58.163363 L-70.434258 58.76013 L-70.314905 59.130125 L-70.076197 59.571733 L-69.849426 59.786568 L-68.172513 59.7806 L-67.271396 59.983501 L-67.002851 60.198337 L-66.459793 61.039778 L-65.719804 62.179601 L-65.284164 63.062815 L-65.033522 65.479719 L-64.973846 65.694554 L-64.872395 66.034711 L-64.430788 67.067117 L-64.353208 68.559032 L-64.126437 68.887254 L-63.929505 69.221444 L-63.12387 69.943531 L-61.263412 71.257234 L-60.46826 71.626412 L-59.633055 71.792713 L-59.119568 71.894957 L-56.792179 72.539464 L-56.374443 72.7543 L-56.183477 73.01091 L-55.980577 73.452516 L-55.932836 73.858318 L-56.016383 74.980239 L-56.213316 76.108127 L-56.195414 76.812311 L-55.962674 77.146501 L-55.395746 77.42698 L-54.751238 77.820847 L-54.524467 77.928264 L-54.506565 78.596642 L-54.417049 78.966638 L-54.112698 79.408245 L-53.915766 79.77824 L-53.939637 80.190008 L-54.703497 80.95387 L-54.804948 81.216447 L-54.840754 81.479024 L-54.82285 82.15337 L-54.703497 82.409979 L-53.987378 82.726266 L-53.868025 82.947069 L-53.884757 83.210605 L-53.891895 83.323032 L-54.202214 84.295761 L-54.596079 84.904463 L-54.995913 85.328167 L-55.174942 85.632517 L-55.192846 86.485894 L-55.401713 87.017015 L-55.723968 87.36314 L-56.386379 87.715231 L-58.051356 88.395545 L-59.119568 88.908764 L-59.477628 89.290695 L-59.614884 89.815849 L-59.57311 90.114232 L-58.767476 90.949705 L-58.325869 91.946305 L-58.164742 92.537103 L-58.069259 93.205482 L-58.087163 93.95144 L-58.182645 94.625786 L-58.164742 95.186746 L-57.854424 95.664159 L-57.579911 96.213184 L-57.490396 96.809951 L-57.550073 97.370911 L-58.087163 98.319769 L-58.218451 98.994115 L-58.301999 99.931038 L-58.504899 100.46813 L-59.01215 101.25586 L-59.37021 101.97198 L-59.465692 102.53294 L-59.346339 102.68213 L-58.516834 103.07003 L-58.284095 103.39825 L-58.200548 103.84583 L-58.343772 108.21415 L-59.077794 110.05816 L-59.501498 110.89364 L-60.110201 111.94991 L-60.319068 112.63023 L-60.545839 113.82973 L-60.862126 114.62342 L-62.1034 116.93291 L-62.377912 117.75645 L-62.330171 118.35321 L-62.312268 118.98579 L-62.109368 119.50497 "  stroke="#005CE6" fill="none" stroke-opacity="1" stroke-width="1" stroke-linecap="round" stroke-linejoin="round" stroke-miterlimit="10" />
</g>
</g>
<g clip-path="url(#cp_2)">
<g transform="matrix(4.1666667 0 0 -4.1666667 980.75633 845.49395)">
<path d="M120.77564 3.5055364 L120.73983 3.9948848 L120.88902 4.6274573 L120.85322 5.0750322 L120.14307 5.8567963 L119.65969 6.1611471 L118.02454 6.6504954 L117.5352 6.9846847 L117.20199 7.7789429 L117.20698 8.2080551 L117.20698 8.5541805 L117.46955 9.6343267 L117.44065 9.7756194 L117.36213 10.159481 L116.98617 10.344479 L116.38663 10.392589 L115.96822 10.461875 L115.53603 10.798021 L115.01684 11.728977 L114.78731 12.321199 L114.23508 13.746046 L113.90822 14.447013 L113.47122 15.38417 L112.82671 16.324077 L112.30752 16.849232 L111.93156 17.03423 "  stroke="#005CE6" fill="none" stroke-opacity="1" stroke-width="1" stroke-linecap="round" stroke-linejoin="round" stroke-miterlimit="10" />
</g>
</g>
<g clip-path="url(#cp_2)">
<g transform="matrix(4.1666667 0 0 -4.1666667 980.75633 845.49395)">
<path d="M123.89076 -2.9514745 L123.59237 -2.5456732 L123.37157 -1.9847127 L123.22238 -1.1611762 L123.15674 1.6376586 L122.85835 2.0852334 L122.56295 2.3299071 L121.9632 2.6461939 "  stroke="#005CE6" fill="none" stroke-opacity="1" stroke-width="1" stroke-linecap="round" stroke-linejoin="round" stroke-miterlimit="10" />
</g>
</g>
<g clip-path="url(#cp_2)">
<g transform="matrix(4.1666667 0 0 -4.1666667 980.75633 845.49395)">
<path d="M-16.969964 -4.0733954 L-15.967396 -4.1330714 L-15.412403 -4.0256544 L-15.137891 -3.9719448 L-14.421771 -3.6914651 L-13.628072 -3.1901807 L-13.007434 -2.3487406 "  stroke="#005CE6" fill="none" stroke-opacity="1" stroke-width="1" stroke-linecap="round" stroke-linejoin="round" stroke-miterlimit="10" />
</g>
</g>
<g clip-path="url(#cp_2)">
<g transform="matrix(4.1666667 0 0 -4.1666667 980.75633 845.49395)">
<path d="M-64.908201 -9.8560604 L-63.977246 -9.993317 L-63.3029 -9.9396085 L-60.134071 -10.023156 L-59.364243 -10.381215 L-58.994247 -10.57218 L-58.343772 -11.336042 L-57.902165 -11.723939 L-57.609749 -11.807486 L-56.786211 -11.82539 L-56.416216 -11.759745 L-55.962674 -11.515072 L-55.07946 -10.715404 L-54.434953 -10.321539 L-52.035952 -9.8620289 L-51.057255 -9.5875157 L-49.51163 -8.9609117 L-48.801478 -8.9012346 L-46.360704 -9.5994517 L-45.059754 -9.7128373 L-43.520097 -9.307036 L-42.648818 -8.9191382 L-42.123664 -8.8176876 L-41.455285 -8.9489757 L-40.052884 -9.4323565 L-39.491924 -9.4502601 L-38.256618 -9.1817154 L-37.421145 -8.7938165 L-36.621478 -8.1791476 L-35.935196 -7.5286726 L-34.586505 -5.9174034 "  stroke="#005CE6" fill="none" stroke-opacity="1" stroke-width="1" stroke-linecap="round" stroke-linejoin="round" stroke-miterlimit="10" />
</g>
</g>
<g clip-path="url(#cp_2)">
<g transform="matrix(4.1666667 0 0 -4.1666667 980.75633 845.49395)">
<path d="M6.7335949 -6.1561095 L7.0677842 -6.162077 L8.0345459 -6.4485253 L8.6671174 -6.5022338 L10.051615 -6.2814312 L11.060151 -6.2694951 L14.50946 -6.9557761 L15.732831 -7.3257714 L19.271655 -8.7580105 L20.232449 -9.1220383 L21.479691 -9.9396085 L22.356937 -10.709437 L22.9358 -11.395718 L22.98951 -12.10587 L22.870156 -12.326673 L22.571773 -12.392318 L21.303644 -12.398285 L21.032116 -12.798119 L20.906795 -13.168113 L21.163404 -13.323274 L21.646785 -13.526174 L22.941769 -13.860363 L23.568372 -14.063263 L24.702228 -15.024057 L25.072224 -15.143411 L25.806247 -15.226958 L26.337369 -15.292602 L27.375741 -15.543244 L28.073958 -15.895336 L28.772174 -16.175816 L29.518133 -16.193719 L30.98021 -16.086301 "  stroke="#005CE6" fill="none" stroke-opacity="1" stroke-width="1" stroke-linecap="round" stroke-linejoin="round" stroke-miterlimit="10" />
</g>
</g>
<g clip-path="url(#cp_2)">
<g transform="matrix(4.1666667 0 0 -4.1666667 980.75633 845.49395)">
<path d="M-70.1608 -10.339681 L-68.452993 -9.9515435 L-67.104301 -9.8739639 "  stroke="#005CE6" fill="none" stroke-opacity="1" stroke-width="1" stroke-linecap="round" stroke-linejoin="round" stroke-miterlimit="10" />
</g>
</g>
<g clip-path="url(#cp_2)">
<g transform="matrix(4.1666667 0 0 -4.1666667 980.75633 845.49395)">
<path d="M30.98021 -16.086301 L31.905198 -16.29517 L33.230019 -16.963547 L33.916301 -17.208222 L34.817418 -17.530475 L36.148206 -17.936277 L37.144807 -18.449496 L37.550608 -18.646429 L38.547207 -19.010457 L39.293165 -19.028359 L39.81832 -18.891102 L40.045091 -18.712073 L40.385248 -18.574817 L40.886531 -18.061597 L41.155076 -17.661764 L41.578781 -17.148545 L41.996517 -16.897904 L43.040857 -16.999353 L43.297467 -17.118707 L44.079231 -17.178384 L44.41342 -17.226125 L45.087766 -17.017257 L46.525973 -16.348878 L48.131275 -16.163881 L48.805621 -16.181783 L49.247227 -16.378717 L49.617222 -16.539844 L49.909638 -16.772582 L50.23786 -17.041127 L50.82269 -17.31564 L51.497036 -17.333543 L52.022191 -17.202255 L52.73831 -16.808388 L53.09637 -16.074366 L53.329109 -15.740177 L53.854264 -15.531308 L54.379418 -15.549212 L55.000054 -16.008722 L55.698271 -16.402587 L55.996655 -16.408556 L56.784386 -16.205654 L57.196154 -16.181783 L57.792921 -16.271299 L58.48517 -16.70097 L59.177419 -17.500638 L60.179986 -18.944812 L60.323211 -19.135777 L61.52271 -20.400922 L62.51931 -20.800755 L63.128012 -21.003656 L64.375253 -20.938012 L64.775087 -20.938012 "  stroke="#005CE6" fill="none" stroke-opacity="1" stroke-width="1" stroke-linecap="round" stroke-linejoin="round" stroke-miterlimit="10" />
</g>
</g>
<g clip-path="url(#cp_2)">
<g transform="matrix(4.1666667 0 0 -4.1666667 980.75633 845.49395)">
<path d="M77.862172 -22.352347 L78.118781 -22.877501 L78.488777 -23.474268 L78.858772 -24.554415 L79.192961 -25.192955 L79.676342 -25.676336 L80.123917 -25.938913 L80.834068 -25.938913 L81.281643 -25.831495 L81.615832 -25.646498 L83.227101 -24.715542 L84.235637 -23.784586 L84.796597 -23.492172 L85.799164 -23.527978 L86.175127 -23.456365 L86.694314 -23.08637 L87.517851 -23.008791 L88.377195 -22.752181 L88.74719 -22.567183 L89.314118 -21.45123 L89.648307 -20.890271 L90.877645 -20.556081 L91.289414 -20.556081 L91.659409 -20.705273 L92.071178 -20.782852 L92.632139 -20.597855 L93.378097 -20.597855 L93.897283 -21.009624 L94.494049 -21.236395 L94.792432 -21.42736 L95.275813 -21.576552 L95.87258 -22.358316 L96.284349 -22.620893 L96.469346 -22.549281 L96.654344 -22.173318 L96.994501 -21.839129 L98.301418 -20.836561 L98.713187 -20.764949 L98.904152 -20.800755 L99.26818 -20.878334 L100.24091 -20.878334 L101.13606 -20.955914 L101.58363 -20.884302 L101.84621 -20.472533 L103.03974 -19.320775 L103.52312 -19.284969 L104.04828 -19.356581 L104.60327 -19.583352 L105.12843 -19.995121 L105.47157 -20.451647 L105.9818 -20.96785 L106.61437 -21.415425 L107.13356 -22.01219 L107.9929 -22.131544 L108.32709 -22.429927 L108.73289 -23.140079 L109.03128 -23.474268 L109.55643 -23.551848 L109.92643 -23.36685 L110.82754 -22.698472 L111.42431 -22.698472 L112.61187 -23.146046 L113.9904 -23.450398 L114.25298 -23.372818 L114.47975 -23.152015 L114.51556 -22.555248 L114.66475 -22.221059 L114.85572 -22.036061 L115.18991 -21.851064 L116.09997 -22.143479 L116.9444 -22.149447 L117.09359 -22.149447 L117.54116 -21.779452 L117.69036 -21.409456 L117.58294 -20.657531 L117.54713 -19.875768 L117.76794 -19.320775 L118.29309 -18.682235 L119.08082 -18.013856 L119.5284 -17.566281 L119.82678 -17.047094 L119.82678 -16.151946 L119.49259 -15.626791 L119.45678 -15.405988 L119.75517 -14.731642 L120.20871 -14.475032 L120.80548 -14.475032 L121.62305 -15.000186 L123.55657 -15.901304 L124.49349 -15.984851 L124.64268 -15.901304 L124.94107 -15.829692 L125.42445 -15.268731 L126.09879 -14.224391 L126.47476 -13.371015 L126.62395 -12.625057 L126.51653 -11.616521 L126.21815 -10.942175 L125.96154 -10.232023 L125.96154 -9.4860661 L126.25992 -8.4059188 L126.37331 -7.6241546 L126.34347 -6.9140026 L125.8571 -6.2993336 "  stroke="#005CE6" fill="none" stroke-opacity="1" stroke-width="1" stroke-linecap="round" stroke-linejoin="round" stroke-miterlimit="10" />
</g>
</g>
<g clip-path="url(#cp_2)">
<g transform="matrix(4.1666667 0 0 -4.1666667 980.75633 845.49395)">
<path d="M9.1564657 -27.335347 L11.155633 -26.607291 L12.104492 -26.034395 L12.67142 -25.753916 L13.572537 -25.515209 L15.237515 -24.626027 L15.798475 -24.381353 L16.329597 -24.244097 L16.777172 -24.029261 L17.654418 -23.420559 L18.794242 -22.70444 L19.319396 -22.459765 L20.369705 -22.262833 L21.414046 -22.286704 L23.413213 -22.865567 L24.045786 -22.841695 L24.988677 -22.531377 L25.812214 -22.328477 L27.310098 -22.292671 L27.906863 -22.083802 L28.437986 -21.803323 L28.93927 -21.331877 L29.362973 -20.633661 L29.565875 -20.192053 L29.810548 -19.261098 L30.132803 -18.49127 L30.711666 -17.685634 L30.920534 -16.868065 L30.98021 -16.086301 "  stroke="#005CE6" fill="none" stroke-opacity="1" stroke-width="1" stroke-linecap="round" stroke-linejoin="round" stroke-miterlimit="10" />
</g>
</g>
<g clip-path="url(#cp_2)">
<g transform="matrix(4.1666667 0 0 -4.1666667 980.75633 845.49395)">
<path d="M-7.4037996 -67.557396 L-7.4873467 -67.217239 L-7.3694383 -66.546383 L-7.314284 -66.232575 L-7.230737 -64.448244 L-6.9323537 -63.075681 L-6.9025152 -62.031339 L-7.0338043 -61.201834 L-7.35009 -60.521521 L-7.4813792 -59.888948 L-7.2725105 -59.142991 L-6.9979983 -58.444774 L-6.4489728 -57.525754 L-5.3688255 -56.063677 L-4.9272192 -55.067076 L-4.7660915 -54.434505 L-4.79593 -54.207734 L-4.8138336 -53.575161 L-5.0346373 -51.999698 L-5.5299532 -51.021001 L-5.4404375 -50.424235 L-5.4643086 -49.899081 L-5.8283364 -49.481344 L-6.1505896 -49.176993 L-6.2938137 -48.795063 L-6.3057487 -47.977493 L-6.5205849 -47.446371 L-7.2725105 -46.384127 L-7.5231527 -45.853005 L-8.1497566 -44.235769 L-8.2810458 -43.722549 L-8.555558 -42.654338 L-8.2512073 -42.552887 L-8.0900807 -41.920315 L-8.0363711 -41.401128 L-7.9110505 -40.953554 L-7.5350877 -40.667106 L-6.8249356 -40.685008 L-6.2997812 -40.625332 L-6.1088161 -40.440335 L-5.7984979 -39.891309 L-5.7089822 -39.336317 L-5.5896292 -39.115514 L-5.1360868 -38.829065 L-4.0081984 -38.482941 L-3.5128826 -38.124881 L-2.8982136 -37.432632 L-2.7907955 -36.239099 L-2.6356364 -36.018296 L-1.8479048 -35.892975 L-0.64243685 -35.475239 "  stroke="#005CE6" fill="none" stroke-opacity="1" stroke-width="1" stroke-linecap="round" stroke-linejoin="round" stroke-miterlimit="10" />
</g>
</g>
<g clip-path="url(#cp_2)">
<g transform="matrix(4.1666667 0 0 -4.1666667 980.75633 845.49395)">
<path d="M144.93727 -164.63423 L145.24902 -163.3921 L144.65823 -162.12099 L145.35047 -158.61797 L145.35644 -156.97686 L145.58321 -156.30848 L146.93191 -154.89415 L148.20302 -154.08254 L148.80575 -153.26497 L149.1101 -152.14902 L149.55768 -151.70145 L152.03426 -148.65794 L152.26103 -147.98359 L151.81942 -147.46441 L151.74781 -147.01683 L152.57135 -146.19926 L153.4665 -145.60846 L154.43923 -145.38766 L156.08033 -145.6204 L157.27387 -145.62637 L157.47711 -145.56946 L158.31821 -145.33395 L159.81012 -145.11315 L162.13154 -143.41236 L163.03266 -142.07561 L164.08297 -141.03126 L165.87924 -139.6229 L166.62519 -139.33048 L167.74711 -139.63483 L168.19469 -139.48564 L168.94661 -138.44727 L169.25097 -137.33131 L169.17935 -135.76182 L168.88694 -134.56829 L168.88694 -134.28781 L168.89291 -133.89991 L169.41806 -133.30314 L170.23563 -133.23153 L170.6832 -133.4583 L171.13078 -133.53588 L171.88271 -133.09427 L173.15382 -131.67994 L173.97736 -131.01156 L175.2425 -131.54268 L175.91685 -131.69187 L176.88361 -131.25026 L177.48634 -131.17865 L178.07714 -131.6322 L178.22036 -132.97492 L178.44117 -133.72088 L179.18116 -134.4728 L182.00386 -136.79422 L182.36192 -137.36115 L183.04223 -138.4413 L184.82657 -139.12161 L186.09171 -140.39869 L186.30655 -141.37142 L187.27331 -142.41576 L187.71491 -143.31688 L188.53249 -144.14042 L188.67571 -145.40556 L189.24607 -146.30304 M200.18007 -141.77988 L200.18136 -141.58626 L200.33652 -140.17192 L200.64087 -139.72435 L201.75683 -139.80193 L201.6136 -138.83517 L202.13876 -138.38759 L202.58633 -138.24437 "  stroke="#005CE6" fill="none" stroke-opacity="1" stroke-width="1" stroke-linecap="round" stroke-linejoin="round" stroke-miterlimit="10" />
</g>
</g>
</g>
<!-- Begin_Label-->
<clipPath id="cp_3">
<path d="M1882.5663 1622.4473 L1882.5663 68.540605 L78.94633 68.540605 L78.94633 1622.4473 Z " />
</clipPath>
<g clip-path="url(#cp_3)">
<g id="EmbdFile__1" transform="matrix(1 0 0 1 78.94633 68.540605)">
<g>
<g color-interpolation="linearRGB" transform="scale(1,1)">
</g>
</g>
</g>
</g>
<!-- End_Label-->
</g>
</g>
</svg>
