<?xml version="1.0" encoding="utf-8" standalone="no"?>
<!DOCTYPE svg PUBLIC "-//W3C//DTD SVG 1.1//EN" "http://www.w3.org/Graphics/SVG/1.1/DTD/svg11.dtd">
<svg version="1.1" xmlns="http://www.w3.org/2000/svg" xmlns:xlink="http://www.w3.org/1999/xlink" width="468pt" height="397pt" viewBox="0 0 468 397" xml:space="preserve" enable-background="new 0 0 468 397">
<g color-interpolation="linearRGB" transform="scale(0.24,0.24)">
<g>
	<rect x="0" y="0" width="1948.815" height="1653.54" fill="#FFFFFF" fill-opacity="0" />
</g>
<g id="Map_Frame">
<g id="lakes">
<clipPath id="cp_2">
<path d="M1882.5663 1622.4473 L1882.5663 68.540605 L78.94633 68.540605 L78.94633 1622.4473 Z " />
</clipPath>
<g clip-path="url(#cp_2)">
<g transform="matrix(4.1666667 0 0 -4.1666667 980.75633 845.49395)">
<path d="M-187.56158 128.82646 L-187.4661 128.2297 L-187.94948 128.20583 L-188.14045 128.02083 L-188.14641 127.80003 L-188.08674 127.31068 L-188.20609 126.86907 L-188.75511 125.98586 L-189.25043 125.51441 L-189.70397 125.26377 L-190.07994 125.16232 L-190.71251 125.18022 L-191.16008 125.37715 L-191.77475 125.92021 L-192.39539 126.52891 L-192.6878 126.79746 L-193.12941 127.00036 L-193.76198 127.01229 L-194.28714 126.88101 L-195.21809 126.90488 L-198.24967 128.0268 L-199.2224 127.94325 L-199.74755 127.80599 L-200.52931 127.82986 L-201.55575 128.56389 L-202.62993 128.70711 L-203.19686 128.56985 L-204.50975 128.12228 L-206.1085 127.66549 L-201.69936 132.37268 L-199.664 132.31755 L-198.47644 132.13852 L-197.65887 131.92965 L-196.54888 131.52981 L-194.85407 130.77789 L-193.63666 130.29451 L-191.26153 129.93645 L-189.41156 129.39936 L-188.36722 129.29791 L-187.92561 129.13678 L-187.56158 128.82646 Z "  fill="#00A9E6" fill-rule="evenodd" stroke="#6E6E6E" fill-opacity="1" stroke-opacity="1"  stroke-width="0.7" stroke-linecap="round" stroke-linejoin="round" stroke-miterlimit="10" />
</g>
</g>
<g clip-path="url(#cp_2)">
<g transform="matrix(4.1666667 0 0 -4.1666667 980.75633 845.49395)">
<path d="M121.9632 2.6461935 L121.25305 2.3895839 L120.99644 2.5745816 L120.77564 3.3563453 L121.33063 3.3563453 L121.9274 2.9445767 L121.9632 2.6461935 Z "  fill="#00A9E6" fill-rule="evenodd" stroke="#6E6E6E" fill-opacity="1" stroke-opacity="1"  stroke-width="0.7" stroke-linecap="round" stroke-linejoin="round" stroke-miterlimit="10" />
</g>
</g>
<g clip-path="url(#cp_2)">
<g transform="matrix(4.1666667 0 0 -4.1666667 980.75633 845.49395)">
<path d="M-5.5776942 -2.1339048 L-5.1718932 -2.2174519 L-4.3841615 -2.1279372 L-3.8291689 -2.1816461 L-3.2682085 -2.235355 L-2.6714421 -2.1756784 L-2.2238674 -2.1876137 L-1.6509718 -3.0230867 L-1.5853275 -3.3990492 L-0.96469045 -3.9719451 L0.32432466 -4.6045173 L1.3567304 -4.8909651 L2.4786511 -4.7716119 L3.8631489 -4.8074177 L5.7548983 -5.1177363 L6.1248934 -5.2430571 L6.4113412 -5.5832141 L6.7335948 -6.1561097 L5.9518311 -6.0964331 L4.6986218 -5.5056344 L3.9586316 -5.4459579 L3.2723502 -5.8398235 L2.8188078 -6.1620774 L1.9117232 -6.5141694 L1.4641484 -6.573846 L-0.47534216 -6.6335228 L-1.0363024 -6.5440078 L-2.2656412 -6.5499755 L-3.8351366 -6.734973 L-4.7302859 -6.7111025 L-5.7328534 -6.5320725 L-6.7712268 -6.2456247 L-7.5112171 -6.150142 L-9.5163519 -5.7980499 L-10.256342 -5.4459579 L-11.133589 -4.7835472 L-11.276813 -4.4851641 L-11.581163 -3.3214696 L-11.831805 -2.9395393 L-12.237606 -2.7426063 L-12.571795 -2.6948651 L-13.007435 -2.3487407 L-12.697116 -1.9489072 L-12.058576 -1.740039 L-11.682614 -1.489397 L-11.599066 -1.2685935 L-11.616969 -0.44505596 L-11.855676 0.27106354 L-12.422604 1.3691135 L-12.440507 2.0792654 L-11.879547 2.3239396 L-11.163427 2.4552282 L-10.495049 2.3239396 L-9.2776454 1.8823326 L-8.4362048 1.3392751 L-7.8931476 0.72460598 L-7.6066998 0.15767782 L-6.89058 -0.94037217 L-5.9118834 -1.9369718 L-5.5776942 -2.1339048 Z "  fill="#00A9E6" fill-rule="evenodd" stroke="#6E6E6E" fill-opacity="1" stroke-opacity="1"  stroke-width="0.7" stroke-linecap="round" stroke-linejoin="round" stroke-miterlimit="10" />
</g>
</g>
<g clip-path="url(#cp_2)">
<g transform="matrix(4.1666667 0 0 -4.1666667 980.75633 845.49395)">
<path d="M-23.892452 -0.67779486 L-23.522457 -0.72553632 L-22.585534 -0.56440937 L-22.209571 -0.39134706 L-21.571032 -0.40328242 L-21.212972 -0.86279254 L-21.147327 -1.2029492 L-21.451678 -1.5669767 L-22.400537 -1.9906807 L-22.704887 -2.2771287 L-22.746661 -2.5039 L-22.567631 -2.766477 L-22.126024 -3.0767956 L-21.49942 -3.2080841 L-20.938459 -3.2200195 L-20.270081 -3.3155021 L-19.195902 -3.6377558 L-18.270914 -3.8167858 L-17.417538 -4.025654 L-16.969963 -4.0733952 L-17.286249 -4.6224203 L-17.548826 -4.8790297 L-18.30672 -5.1535424 L-19.052678 -5.3206368 L-19.721056 -5.231122 L-20.974265 -4.5269376 L-21.529258 -4.359843 L-23.15843 -4.0196863 L-23.647778 -4.0077509 L-24.322124 -4.2166191 L-24.91889 -4.1987163 L-25.808072 -4.0614598 L-26.679351 -4.449358 L-28.320458 -5.8995003 L-31.519126 -6.8602941 L-32.378469 -6.9856149 L-33.273619 -7.0393238 L-34.168768 -6.9736795 L-34.57457 -6.7409406 L-34.586505 -5.9174031 L-34.843114 -5.654826 L-35.153433 -6.0904654 L-36.090356 -6.2157863 L-36.79454 -6.2336893 L-37.618078 -6.3649778 L-38.101458 -6.239657 L-38.578871 -5.815953 L-38.716128 -5.3624105 L-38.614677 -4.5448407 L-38.417744 -4.1748456 L-37.886623 -3.7451738 L-37.283889 -3.5363057 L-36.388739 -3.4109846 L-34.705858 -3.4169523 L-33.810709 -3.3274373 L-32.909591 -3.0529248 L-31.143163 -2.6530915 L-29.603506 -2.1339048 L-28.439812 -1.9429395 L-27.502889 -1.8534245 L-26.864349 -1.6863301 L-26.488386 -1.4714942 L-25.91549 -0.92246912 L-25.306789 -0.49279742 L-24.853246 -0.31973511 L-24.519057 -0.40328242 L-23.892452 -0.67779486 Z "  fill="#00A9E6" fill-rule="evenodd" stroke="#6E6E6E" fill-opacity="1" stroke-opacity="1"  stroke-width="0.7" stroke-linecap="round" stroke-linejoin="round" stroke-miterlimit="10" />
</g>
</g>
<g clip-path="url(#cp_2)">
<g transform="matrix(4.1666667 0 0 -4.1666667 980.75633 845.49395)">
<path d="M125.81831 -6.2814305 L125.51993 -6.5022341 L125.14993 -6.4246544 L124.77397 -6.1262715 L124.63075 -5.8278883 L124.66655 -5.4936991 L124.40398 -4.8193531 L123.84898 -3.9242036 L123.74157 -3.5482408 L123.77737 -3.2140518 L123.89076 -2.9514745 L124.77994 -3.7392062 L125.44832 -5.123704 L125.48412 -5.4578932 L125.7467 -5.8696619 L125.81831 -6.2814305 Z "  fill="#00A9E6" fill-rule="evenodd" stroke="#6E6E6E" fill-opacity="1" stroke-opacity="1"  stroke-width="0.7" stroke-linecap="round" stroke-linejoin="round" stroke-miterlimit="10" />
</g>
</g>
<g clip-path="url(#cp_2)">
<g transform="matrix(4.1666667 0 0 -4.1666667 980.75633 845.49395)">
<path d="M-65.403517 -10.333474 L-65.85706 -10.506536 L-66.262861 -10.309603 L-67.104301 -9.8739639 L-65.761577 -9.7605782 L-64.908201 -9.8560609 L-65.403517 -10.333474 Z "  fill="#00A9E6" fill-rule="evenodd" stroke="#6E6E6E" fill-opacity="1" stroke-opacity="1"  stroke-width="0.7" stroke-linecap="round" stroke-linejoin="round" stroke-miterlimit="10" />
</g>
</g>
<g clip-path="url(#cp_2)">
<g transform="matrix(4.1666667 0 0 -4.1666667 980.75633 845.49395)">
<path d="M73.49981 -20.436728 L73.911579 -20.442695 L74.693343 -20.293504 L76.298644 -20.335277 L77.378791 -20.71124 L77.754754 -20.973817 L78.088943 -21.421392 L78.124749 -22.018158 L77.862172 -22.316541 L77.563789 -22.16735 L77.486209 -21.940579 L77.450403 -21.570584 L77.301212 -21.2722 L77.008796 -20.96785 L76.262838 -20.705272 L74.770922 -20.741079 L73.613196 -20.961882 L72.753853 -20.848496 L71.56032 -20.585919 L70.068404 -20.502372 L69.137449 -20.466566 L68.504876 -20.615757 L67.609727 -20.908173 L66.899575 -21.057365 L65.706042 -21.093171 L64.924278 -21.087203 L64.775087 -20.938011 L64.960084 -20.78882 L65.706042 -20.753014 L65.968619 -20.794787 L66.636998 -20.681402 L67.388923 -20.347213 L68.355685 -20.054797 L68.994225 -19.756414 L69.477605 -19.720608 L70.557752 -19.911573 L71.602093 -20.024959 L72.234666 -20.209956 L73.129815 -20.25173 L73.49981 -20.436728 Z "  fill="#00A9E6" fill-rule="evenodd" stroke="#6E6E6E" fill-opacity="1" stroke-opacity="1"  stroke-width="0.7" stroke-linecap="round" stroke-linejoin="round" stroke-miterlimit="10" />
</g>
</g>
<g clip-path="url(#cp_2)">
<g transform="matrix(4.1666667 0 0 -4.1666667 980.75633 845.49395)">
<path d="M0.37206589 -35.16492 L-0.64243679 -35.475239 L-0.51711593 -35.033632 L-0.0635735 -34.597992 L1.4880189 -33.780422 L2.9978378 -33.106076 L3.224609 -32.962853 L4.0063728 -31.757385 L4.4241094 -31.429163 L5.7489306 -30.683205 L6.2442465 -30.247566 L6.6023063 -29.507576 L6.8947218 -28.212593 L7.2050403 -27.806792 L8.1897048 -27.239864 L8.6014735 -27.210025 L9.1564663 -27.335346 L9.1445309 -27.747115 L8.8759859 -28.188722 L8.1837371 -28.880971 L7.5392293 -29.382255 L7.5272942 -29.794023 L7.706324 -30.098374 L7.885354 -30.253534 L8.1001898 -30.59369 L6.9723014 -30.975621 L6.6679506 -31.303842 L5.6892538 -31.500775 L5.3073235 -31.787223 L4.6150745 -32.777855 L3.9228255 -33.434298 L2.4547804 -33.989291 L1.6610812 -34.377189 L0.37206589 -35.16492 Z "  fill="#00A9E6" fill-rule="evenodd" stroke="#6E6E6E" fill-opacity="1" stroke-opacity="1"  stroke-width="0.7" stroke-linecap="round" stroke-linejoin="round" stroke-miterlimit="10" />
</g>
</g>
</g>
<!-- Begin_Label-->
<clipPath id="cp_3">
<path d="M1882.5663 1622.4473 L1882.5663 68.540605 L78.94633 68.540605 L78.94633 1622.4473 Z " />
</clipPath>
<g clip-path="url(#cp_3)">
<g id="EmbdFile__1" transform="matrix(1 0 0 1 78.94633 68.540605)">
<g>
<g color-interpolation="linearRGB" transform="scale(1,1)">
</g>
</g>
</g>
</g>
<!-- End_Label-->
</g>
</g>
</svg>
